<?xml version="1.0" encoding="utf-8"?>
<!-- Generator: Adobe Illustrator 22.1.0, SVG Export Plug-In . SVG Version: 6.00 Build 0)  -->
<svg version="1.1" id="Layer_1" xmlns="http://www.w3.org/2000/svg" xmlns:xlink="http://www.w3.org/1999/xlink" x="0px" y="0px"
	 viewBox="0 0 1400 600" style="enable-background:new 0 0 1400 600;" xml:space="preserve">
<style type="text/css">
	.st0{fill:#00AA6E;}
	.st1{fill:none;stroke:#000000;stroke-width:0.3;}
	.st2{fill:#989898;}
</style>
<g>
	<path class="st0" d="M-197.6,594.2c1.8-0.1,3.6,0.2,5.1,1.3c0.7,0.4,1.4,0.8,2,0c0.9-1,1.4-1.4,1.8,0.4c0.1,0.5,1,0.2,1.4-0.2
		c0.8-0.7,2.4-0.4,2.5-0.2c1.3,2.7,2.9-0.1,4.3,0.3c0.2,0.1,0.8-0.4,0.8-0.6c-0.5-2.6,1.7-4.6,1.4-7.2c-0.3-2.4-0.6-3.7-3.3-3.6
		c-1.6,0-3.2-0.2-4.4-1.6c-1.1-1.4-1.4-2.3,0.4-3.5c8.6-5.6,17.2-11.3,25.7-17c2.8-1.9,5.7-3.7,8.6-5.5c1.2-0.8,1.7-1.7,1.9-3.2
		c1.6-11.2,3.4-22.4,5.1-33.6c0.1-0.6,0.1-1.3,0.8-1.7c0.9,0.3,0.7,1.1,0.7,1.7c0.6,10.5,1.7,21.1,1.4,31.6
		c-0.1,4.4,1.9,6.1,4.4,8.2c8.5,7.3,17.1,14.6,25.6,21.9c0.7,0.6,2.2,1,1.6,2.2c-0.5,1.1-1.4,2.1-2.7,2.3c-1,0.2-2.1,0.2-3.1,0.3
		c-0.8,0.1-1.8-0.1-1.8,1.2c0,1.3,0.9,1.2,1.8,1.3c4.8,0.2,9.6,0.4,14.4,0.6c4.6,0.2,9.2,0.2,13.9,0.5c2.3,0.1,3.1-0.6,2.9-2.8
		c-0.1-1.7,0.1-3.4,0.2-5.1c0-0.9,0.2-1.6,1.4-1.6c1.6,0,1.2,1.3,1.3,2.3c0.2,1.2,0.2,2.5,0,3.7c-0.4,2.3-0.1,3.4,2,3.5
		c4.5,0.3,4.9,0,5.1-4.5c0.3-8,0.6-16,0.8-24c0-1.4-0.2-2.9,2.1-2.8c2,0.1,2.3,1,2.2,2.7c-0.3,8.7-0.6,17.3-0.9,26
		c0,1.1-0.5,2.5,1,2.8c1.3,0.3,2-0.7,2.3-2c0.4-1.6,2-3.2,0.1-4.9c-0.5-0.4-0.1-0.9,0.4-1c0.5-0.1,1.1-0.3,1.7-0.2
		c1.8,0.2,1.3-1.9,2.5-2.3c-0.6-0.6-1.1-1.5-1.7-1.6c-2.3-0.5-2.1-1.8-1.8-3.6c1.1-6.5,1.1-13.1,0.7-19.7c-0.1-1.8-1.6-3.4-1.2-5.4
		c0.2-1,0.2-2.1,1.5-2c2,0.2,3-1.1,4.1-2.5c-0.5-0.1-1-0.3-1.4-0.4c-2.3-0.4-4.2-0.4-2.3-3.9c1.1-2.1,0.7-5.4,0.2-8
		c-0.5-3.1,1.1-6.1-0.4-9.1c-0.5-0.9,0.9-0.9,1.6-0.9c1.2,0,2.4,0,2.4,1.7c0,1.5-0.2,3-0.3,4.5c-0.1,1.6,0.3,2.8,2,2.8
		c-1.3-3.2-0.4-6.4-0.2-9.6c0.2-4,0.5-7.9,0.8-11.8c0-0.9,0.2-1.9-1-2.8c-1.1,2.3-0.6,4.6-1,6.9c-0.2,1.2-0.1,2.4-0.1,3.7
		c0,0.8-0.3,1.5-1.2,1.7c-0.9,0.1-2,0.4-2.7-0.4c-0.7-0.7,0.1-1.4,0.3-2.1c0.8-2.4,1.5-4.7,0-7.3c-1.4-2.4-0.6-3,2.1-3.3
		c5.6-0.5,11.3,0.5,16.9-0.4c0.4-0.1,0.9-0.1,1.3,0c2,0.1,4.4-0.4,5.9,0.5c1.9,1.1-0.4,3.2-0.1,5c0.3,1.9,0,4,0.2,5.9
		c0.2,1.8-0.7,2.1-2.2,2.2c-1.6,0.1-2.2-0.4-2.1-2.1c0.3-3.3,0.3-6.5-0.5-9.8c-1.7,8.7-0.6,17.6-1.6,26.3c1.5,0.2,1.6-0.8,1.7-1.9
		c0-2.5,0.1-4.9,0.1-7.4c-0.1-2.4,1.4-2.5,3.2-2.4c2,0.1,1.5,1.4,1.4,2.6c-0.4,3.6-0.7,7.1-1.1,10.7c-0.2,1.4,0.5,2.6,0.6,3.9
		c0.1,3.5-1.2,4.7-5.8,5.5c1.9,0.8,2.9,2.8,5.3,2.6c0.9-0.1,0.9,1.1,0.7,1.8c-0.5,3.6,0.3,7.3-0.6,10.9c-0.1,0.6,0.1,1.1,0.7,1.4
		c0.7,0.3,1.1-0.3,1.5-0.8c0.8-1,1.3-2.2,1.4-3.6c0.5-10.6,1.3-21.2,1.3-31.8c0-0.7-0.2-1.6,0.7-2c0.9-0.3,1.3,0.5,1.9,1
		c1.4,1.2,1.5,3.1,2.4,5.4c1.4-6.6-0.3-12.7,2.3-18.4c-0.2,0,0.1,0,0.1,0c-0.2,3.3,1.8,3.5,4.3,3.4c4.2-0.2,8.5,0,12.8,0
		c0-2.3-2.6-2.5-3.1-4.5c2.5-0.4,4.8-1.1,7-2c1-0.4,2-0.8,1.9-2.1c-0.1-2.7-0.3-5.4-0.5-8.1c-1.2,0.3-0.9,0.9-0.7,1.4
		c0.3,1.2-0.1,1.3-1.3,2c-2.5,1.5-3.7,1.1-4.6-1.5c-0.1-0.3-0.9-0.3-1.2-0.5c-2.3-1.6-2.3-2.7-0.1-4.4c1.3-1,2.8-2,3.9-3.3
		c1.3-1.4,1-3.1-0.8-3.7c-2-0.7-1.3-1.7-0.6-2.7c3.4-5.1,6.9-10.1,10.4-15.2c0.8-1.1,1.9-2.1,1.8-3.7c-0.1-1,0.9-1.4,1.8-1.5
		c0.7,0,1.3,0.4,1.3,1.2c0,2.2,1.4,3.6,2.5,5.3c2.8,4.6,5.6,9.2,8.5,13.7c0.9,1.3,1.3,2.5-0.8,2.8c-1.3,0.2-1.3,1.8-2.6,1.9
		c-0.3,0-0.5,0.3-0.1,0.9c1.6,2.4,3.5,4.5,5.2,6.7c0.5,0.6,1.3,1.6,0,2c-3.3,1.1-3.3,3.7-3.4,6.3c0,0.4-0.2,0.9-0.5,1.7
		c-1-1.5-0.5-2.8-0.7-4c-0.1-0.8,0.2-1.9-1-1.9c-1.2,0-2,0.6-2,1.9c-0.1,1.3-0.3,2.7-0.1,3.9c0.3,1.9,2.4,0.8,3.1,1.5
		c3.2,3,6.1,1,9.2,0c7.9-2.7,15.8-5.6,23.8-8.3c3.8-1.3,7.6-2.9,11.3-4.5c4.9-2.1,9.2-1.7,13.7,0.7c0.4,0.2,0.7,0.4,1.1,0.5
		c3.4,1.4,3.3,1.7,4.6-1c0.4,1.2,1,2.2,2.4,1.7c1.4-0.5,1.2-1.8,1.1-2.9c-0.2-1.4-1.3-1.6-2.4-1.3c-1.5,0.5-1.6,0-1.6-1.5
		c0.1-5.5,0.1-10.9,0.1-16.4c0-0.9,0-1.9-0.6-2.8c-1.5,0.9-2.2,2.1-2.1,3.9c0.1,2.8-0.1,5.7,0,8.5c0,1.5-0.7,2.1-2,2.2
		c-1.8,0.1-1.3-1.3-1.3-2.2c0-2.6,0.1-5.3,0-7.9c0-0.8,0.4-2.2-1-2.2c-1.4,0-1.3,1.4-1.3,2.4c0,2.6-0.1,5.3-0.1,7.9
		c0,0.6,0,1.1-0.1,1.7c-0.1,1.5-1.3,1.5-2.3,1.5c-1.2,0-0.8-1.1-0.8-1.7c0-3.2,0.1-6.4,0-9.6c0-1.3,0.6-1.8,1.7-2.4
		c-3.4,0.3-4,0.8-4.1,4.1c-0.1,2.8-0.1,5.7-0.1,8.5c0,1.4-0.5,2.3-1.9,2.2c-1.5-0.1-1-1.4-1-2.2c-0.1-3.5,0-6.9,0-10.5
		c-2,0.2-2.1,1.3-2.2,2.6c-0.1,3-0.3,6-0.3,9.1c0,1.4-0.5,2.2-1.9,2.1c-1.6-0.1-0.8-1.4-0.8-2.2c-0.1-2.9,0.1-5.8,0-8.8
		c0-1.5-0.2-3.2-2.3-1.4c-0.5,0.5-0.8,0.2-1.1-0.2c-0.3-0.4-0.4-0.9,0.1-1.2c0.6-0.4,1.2-0.7,2-1.1c-1.1,0-1.8,0-2.7-0.1
		c-0.8-0.1-1.5-0.7-1.6-1.5c-0.2-1.2,1.2-0.9,1.8-1.3c6.6-3.9,14.3-5,21.3-7.9c1.6-0.7,1.8-1.6,1.8-3c0-1.6-0.9-1.2-2-1.5
		c-1.3-0.4-2.4-1.1-3.9-1.3c-1-0.1-0.2-1.4,0.3-2c4.2-6.1,8.4-12.3,12.6-18.4c3.3-4.7,6.6-9.4,10-14.1c1.3-1.8,1.7-4.4,4.6-5.1
		c0.6-0.1,1.9-2,0.7-4c-1.4-2.2,0-5.1,0-7.6c0-0.2,0.7-0.7,1.1-0.7c0.7,0,1.3,0.6,1.2,1.3c-0.8,5.1,3,9,3.8,13.7
		c0.1,0.8,0.8,1.4,1.3,2.1c7.6,10.7,15.2,21.4,22.7,32.1c1.9,2.7,1.7,2.5-1.3,3.3c-1.3,0.4-3.9,0.2-4,2.9c0,1.2,0.4,1.7,1.5,2.2
		c6.8,3,13.8,5.1,20.9,7c2.6,0.7,3,1.8,1.5,3.6c-1.4,1.8-0.6,4.3-2.2,6c-0.4-2.4-2.3-3.3-4.4-4.1c0.9,0.7,1.8,1.3,1.7,2.7
		c-0.1,3.1,0,6.2,0,9.3c0,1,0,2-1.4,1.8c-1.2-0.2-2.2-0.3-2.1-2c0.2-2.3,0-4.7,0.1-7.1c0.1-1.9,0-3.7-1.5-5.1
		c-1.3,3-0.8,11.8,0.7,14c-3-1.7-6.4-1-9.5-2.4c-1.2-0.6-1.1-1.4-1.1-2.3c0-2.9,0-5.8-0.1-8.8c0-0.8,0.1-1.8-1.1-1.9
		c-1.5-0.1-1,1.1-1,1.8c-0.1,2.3,0.9,4.5-0.2,6.9c-0.5,1.2,0.2,2.7,1.8,3.7c-4.9-0.1-5.5-0.7-5.5-4.9c0-2.5,0-4.9,0-7.4
		c0-0.9-0.1-1.8-1.3-1.8c-1.2,0-1.3,0.9-1.4,1.8c-0.1,1.3-0.6,2.7,0.8,3.6c0.2,0.1,0.4,0.3,0.4,0.3c-1.6,2.6,0.2,5.3-0.3,7.7
		c-0.9,3.6-0.6,4.4,2.7,5.5c3.1,1,6.2,1.1,9.3,0.4c2.1-0.5,3.6,1.3,5.3,2c13.7,5.5,27.3,11,41.2,15.8c1.4,0.5,2.5,0.9,3.6-0.7
		c0.9-1.2,2.7-1,4.2-1.4c1.1-0.3,2.1-0.6,2.1-1.9c0-1.7,0.5-3.8-0.8-5.1c-1-0.9-2.4-0.9-2.8,0.9c-0.3,1-0.3,2-0.5,3.6
		c-0.2-1.4-0.3-2.2-0.5-3.1c-0.4-1.8-1-3.2-3.2-3.5c-2.1-0.3-2.7-2-1.2-3.5c1.2-1.3,2.7-2.2,4-3.4c2.2-2,2-3.7-0.7-4.7
		c-1.9-0.7-0.7-1.6-0.3-2.3c3.4-5,6.8-10,10.2-15c0.9-1.3,2-2.5,1.8-4.3c-0.1-1,0.6-1.3,1.4-1.5c0.8-0.2,1.7,0,1.8,0.9
		c0.9,4.9,4.5,8.2,6.8,12.2c1.9,3.2,4.1,6.3,6.1,9.4c-1,1.2-3.3,0.3-3.3,2.3c0,1.9,1.5,2.7,2.9,3.5c0.4,0.2,0.8,0.5,1.2,0.8
		c1.1,1,3.8,1,2,3.7c-0.5,0.8-1.3,1.3-2.2,1.7c-3.7,1.5-4.3,7.7-1.1,10c0.4,0.3,0.9,0.3,0.7,1c-0.2,0.9-4.7,4.2-5.6,4
		c-2.2-0.3-4.4-0.6-6.6-0.1c0,0.3,0,0.6,0,0.9c3,0,6.1,0,9.1,0c4.2,0,8.3,0.2,12.5,0.1c2-0.1,2.6,0.7,2.8,2.5
		c0.8,7.1,1.5,14.2,2.5,21.3c0.4,2.7,0.1,5.7,0.9,8c2.7,8.3,0.6,16.7,1.7,25.1c0.4,3.4,0,6.9,0.3,10.4c0.1,0.9-0.1,1.9,0.6,3
		c1.7-2.9,4.4-2.1,6.9-2.2c0.1-2.1,0.2-3.8-2.7-3.9c-1.2,0-1.4-1.3-1.5-2.4c-0.7-6.5-0.4-13-0.4-19.5c0-2.1,0.1-4.1,0-6.2
		c-0.2-2.4,0.7-3.3,3-3c0.7,0.1,1.5,0.1,2.2-0.4c-0.8-1.2-1.2-2.6-3.1-2.5c-1.4,0.1-1.9-1.5-2-2.7c-0.2-6-0.4-12.1-0.2-18.1
		c0.1-2.4,2.4-1,3.7-1.3c1.2-0.3,1.6,0.4,1.6,1.6c-0.1,3.1-0.2,6.2,0.5,9.4c1.6-2.6,1.6-2.6,1.6-5.3c-0.1-6.2,0.3-12.5-0.5-18.7
		c-0.2-2,0.6-2.9,3-2.7c3.1,0.3,6.3,0.2,9.5,0c2.2-0.1,2.8,0.8,2.9,2.7c0.1,6.5,0.7,13,0.5,19.5c-0.1,2.1,0.5,3.2,1.6,4.1
		c0-2.7,0-5.6,0-8.5c0-1.8,0.9-2.2,2.5-2.1c1.5,0.1,2.3,0.5,2,2.2c-0.7,5.1-1,10.1,0.2,15.1c0.4,1.8-0.6,3.7-2.4,4.8
		c-0.7,0.4-1.3,0.8-1.1,1.8c0.1,0.7,0.8,0.9,1.3,0.9c2.8-0.1,2.6,1.8,2.8,3.8c0.7,7.7,0.1,15.4,1.5,23c0,0.3,0.2,0.5,0.4,1
		c1-0.8,0.7-1.7,0.7-2.5c0-11.6,0-23.2-0.2-34.8c0-1.5,1.2-2.8,2.8-2.8c5.6,0.1,11.2,0,17,0.3c-2.1,1.1-2.3,2.7-2.3,4.7
		c0.1,5.6,1.1,11.4-0.3,16.6c-1.8,6.6-0.9,13.1-1.2,19.6c-0.1,3.5,2.1,6.1,5.6,7.4c0.8-0.7-0.2-1.6,0.2-2.5c1.4,0.9,2.5,2.3,4.4,1.6
		c0.3-0.1,1-0.1,1.1,0.6c0.6,3,2.7,2.8,5,2.4c0.2,0.9-0.6,1.3-0.9,1.9c-0.6,1.5,0,2.4,1.4,2.7c4.3,0.7,8.7-0.1,13,0
		c0.7,0,1.3-0.2,1.3-1.1c0-1-0.7-0.9-1.4-1.1c-1.7-0.4-3.6,0.1-5-1.6c-0.9-1.1-1-1.6,0.2-2.6c7-5.8,13.9-11.7,20.8-17.5
		c3.2-2.8,6.4-5.5,9.6-8.4c1.2-1,2.1-2.3,4.1-2.5c-2.6,0.3-2.8-1-2.6-2.9c0.6-10.6,1.2-21.3,1.8-31.9c0-0.7-0.3-1.8,0.8-1.8
		c1,0,0.7,1.2,0.8,1.8c1.8,10.9,3.1,21.9,3.7,32.9c0.3,4.7,3.7,2.9,6.8,9c4.9,9.5,14.3,15.4,25,16.2c2.6,0.2,3.2,3.1,5.8,1.3
		c0.8-0.6,2.6-1.1,3.9-0.2c0.1,1.5,0.2,2.2,0.3,3.7c-0.7,0.8-1.3,1.8-2.6,0.9c-0.4-0.3-0.9-1.4-1.5-0.3c-0.3,0.5-1,1.2-0.2,2
		c0.6,0.6,1.2,1.2,2.1,1c0.7-0.2,1-1.1,1.9-1.1v35.7c-5.5,0.2-11.1,0.3-16.6,0.5c-14.8,0.3-29.5,0.6-44.3,0.9
		c-0.6,0-1.3,0.2-1.9,0.4c-34.9,0-69.8,0-104.8,0c-4.1-0.7-8.2-1.1-12.3-1.1c-1.8,0-4.2,0.7-5.2-0.4c-1.5-1.8-3.3-1.9-5.2-2.3
		c-7.5-1.6-15-2.7-22.5-3.8c-1.1-0.2-2.2-0.6-3.2,0.3c0.4,0.8,1.1,1.1,1.8,1.3c4.2,1.2,8.3,2.5,12.6,3.2c2.4,0.4,5.1,0.5,6.9,2.7
		c-127.5,0-255,0-382.5,0.1c-1.5,0-2.6-1.2-2.6-2.6C-197.5,613.6-197.6,603.9-197.6,594.2z M0,540.1c-0.2-1.3-0.9-2-2.3-1.8
		c-1.5,0.2-3.1,0.2-5.1,0.3c1.8,0.3,4-0.6,3.6,2.4c-0.2,1.6-0.4,3.1-1.8,4.7c2.5-0.8,2.7-0.8,2.8-3.6c0.1-2.2,0.9-3,2.9-2.2
		c-1,1.7,0.3,4.2-1.8,5.9c19.3,0,38.6,0,57.9,0c-1.4-1.6-0.9-3.3-0.2-5.2c-0.2,3.1,1.4,3.5,3.9,3.2c1.6-0.2,3.2,0,4.8,0
		c1.4,0,1.5,0.9,1.3,1.9c-0.2,0.9-0.1,3-0.9,2.6c-2.1-1-3.4-1-4.5,1.2c-0.2,0.5-1.1,0.1-1.5-0.2c-2.2-1.6-2.2-0.1-2.2,1.5
		c0,5.4,0,10.8-0.1,16.1c-0.4,14.6-0.5,29.2-0.3,44.1c1.3-2.2,2.7-3.3,5.1-2.8c1.2,0.2,2.6-0.2,3.9-0.5c3.1-0.7,4.2-2.2,4.3-5.3
		c0.2-8.9,0.4-17.7,0.6-26.6c0.2-9.8,0.4-19.6,0.5-29.4c0-1.7,0.3-2.6,2.3-2.6c14.5,0.1,29.1,0.1,43.6,0.1c1.6,0,2.1,0.6,2,2.2
		c-0.4,18.8-0.2,37.5-0.2,56.3c0,1.4-0.1,2.8,0.8,4.1c0.5,0.7,1.2,1.3,1.8,0.5c2.3-3.1,8-3.2,7.4-8.7c-0.1-0.8,0.8-1.3,1.6-1.3
		c1,0,1.2,0.8,1.2,1.6c0,1.2,0,2.4,0,3.6c0.6-6.1,0.6-12.2,0.6-18.3c0-9.8,0.1-19.6,0-29.4c0-1,0.6-2.5-1.3-2.6
		c-1.5-0.1-2.2-0.9-2.8-2c-0.5-0.8-1.2-1.2-2.1-0.7c-2.1,1.2-2.4-0.3-2.6-1.8c-0.2-1.6-0.5-3.4,2.1-3.3c1.9,0.1,3.8,0,5.7,0.1
		c1.4,0.1,2-0.3,2.1-1.9c0.1-2.1-0.7-2.8-2.8-2.8c-8.1,0.1-16.2,0-24.3-0.1c-17-0.1-33.9,0.3-50.9-0.9c-1.4-0.1-1.3,0.4-1.3,1.6
		c0.3,4.4-0.2,4.9-4.6,4.9c-4.4,0-8.8-0.1-13.2-0.3c-1.1,0-2.8,0.7-3-1.1c-0.2-1.7-1.3-3.9,1.6-5.3c-0.8,0-1.2,0-1.7,0
		c-4.3-0.3-4.4-0.3-5,4.1c-0.2,1.8-1.2,2.2-2.7,2.1c-6.4,0-12.8,0-19.2,0c-4.5,0-4.5,0-5.6-4.2C0.4,540.3,0.1,540.2,0,540.1z
		 M48.8,501.5c-9.6,2.9-18.9,6.3-28.2,9.6c-2,0.7-2.2,2-2,3.4c0.2,1.5,1.8,0.9,2.8,0.9c10.4,0.1,20.7,0.2,31.1,0.3
		c0.5,0,1,0.1,1.2-0.4c0.3-0.6-0.2-1-0.5-1.5c-1.6-2.4-4.1-4.5-2.4-7.9c0.2-0.5,0.6-1.3-0.3-1.6c-1.5,1.1-0.5,3.3-2.3,4.8
		C48.4,506.3,48.6,504.1,48.8,501.5z M98.5,488c0.7-0.1,0.9,0.3,1,0.6c1,4.3,1,4.4,5.5,4.2c0.7,0,1.6-0.4,2.2-0.2
		c2,0.6,3.8-1.4,5.7-0.5c0.8,0.3,1.5,1,2.2,0.2c0.7-0.8,0.7-1.9,0.4-3c-0.2-0.9-0.8-1.3-1.8-1.4c-2.1-0.2-4.1-0.2-6.3,0
		c-3.9,0.4-8-1.5-11.9,0.2c-0.4,0.2-0.6,0-1-0.2c-2.1-1.3-4.4-0.6-6.5,0c-1.7,0.5-1.1,2.1-1.2,3.4c0,0.9,0.2,1.7,1.3,1.9
		c2,0.4,1.9-1.4,2.6-2.8c0.7,2.9,2.2,3.6,6.3,2.8C100.3,492.5,97.9,489.8,98.5,488z M-6,556.6c0.3,3.7-0.6,7.3-0.6,11
		c0,2.5,1,3.2,3.4,2.4c2.3-0.7,3.6-3.5,3.2-6.8c-0.2-1.7-0.8-3.4,0-5c1.3-2.6,0.4-5-0.5-7.3c-0.7-1.8-2.7-1.5-4.1-1.7
		c-1.5-0.2-1.3,1.5-1.3,2.6C-6.1,553.4-6,555-6,556.6z M197.3,560.9c-0.1,0-0.1,0-0.2,0c0-0.8,0-1.5,0-2.3c0-0.8,0-1.7,0-2.5
		c0-3.8,0-3.8-3.8-3.5c-0.3,0-0.6,0-0.8-0.2c-2-1.1-2.1,0.4-2.1,1.6c-0.1,3.5,0,6.9,0,10.4c0,2.2,0.1,4.1,3.1,3.7
		c0.5-0.1,1.1,0.6,1.7,0.9c0.5,0.3,0.9,1.3,1.6,0.7c0.4-0.3,0.5-1.2,0.5-1.8C197.3,565.6,197.3,563.3,197.3,560.9z M32.5,556.3
		c-0.2-5.7-0.2-5.6-4.3-7.1c-1.5-0.6-1.9-0.2-1.9,1.2c0,2.1,0.2,4.2-0.1,6.2c-0.5,3.6,1.2,7,0.5,10.5c-0.2,0.9,0.7,1.6,1.6,1.7
		c1,0.2,1.7-0.6,1.8-1.4C30.5,563.4,34,560.1,32.5,556.3z M327.2,610.2c-1.7-1.6-2-3.2-2-4.9c-0.1-2.3-0.1-4.5-0.2-6.8
		c0-0.6,0.2-1.8-0.9-1.6c-0.6,0.1-1.4,0.7-1.1,1.7c0.2,0.7,0.2,1.1-0.6,1.2c-1.9,0.2-1.7,1.7-1.7,3c-0.1,3.9,0.2,7.9-0.3,11.8
		c-0.3,3,1.6,2.4,3.1,2.6c1.9,0.2,2.1-0.9,2.1-2.6c-0.1-1.9-1.3-2.7-3.2-3.7C324.2,610.6,325.4,610.4,327.2,610.2z M199.8,544.6
		c-2.2,0.1-4.2,0.1-4.1-3.1c0-1.2-1.3-2.5-2.5-2.2c-3.9,1-7.9,0.3-11.8,0.8c2.4,0.1,4.9,0,7.3,0.1c1,0,2.6-0.6,2.6,1.6
		c0,1.7,0,3.3-1.8,2.9c0.6-0.2,1.6,0.5,2.5,1.2c0.8-0.6,0.4-1.4,0.5-2c0.1-1.1-0.3-2.7,1.2-2.7c1.5,0,1.2,1.6,1.3,2.7
		c0,0.3,0,0.6,0,0.8c-0.2,2,0.8,2.6,2.7,2.6c2.7,0,5.5,0.3,8.2,0.3c5.4-0.1,10.9,0.6,16.7-0.4c-1-0.8-1.8-0.6-2.5-0.5
		c-1.8,0.2-2.1-0.9-2-2.3c0.1-1-0.4-2.4,1.1-2.5c1.7,0,1.1,1.6,1.3,2.6c0.1,0.3,0,0.8,0.5,0.8c1.1-4.6,0.2-5.3-6-4.6
		c0.6,0.2,1.5-0.4,1.9,0.7c0.9,3-0.7,5.3-3.9,5c-3-0.3-6-0.2-9,0c-2.4,0.1-4.9-0.4-7.7-0.6C197.7,544.4,198.8,545,199.8,544.6z
		 M107.5,479.9C107.5,479.9,107.5,479.9,107.5,479.9c0.1-1.4,0-2.8,0.1-4.2c0.2-2.1-1.7-1.9-2.7-2.2c-1.2-0.3-0.9,1.1-1,1.9
		c-0.1,3,0,6-0.1,9c0,1.3,0.6,1.9,1.8,2c1.3,0,1.9-0.7,1.8-1.9C107.5,483,107.5,481.5,107.5,479.9z M81.9,490.3
		c0.4,1.6,0.5,3,2.2,2.9c0.9-0.1,1.5-0.6,1.5-1.4c0-1.4,0.7-3-0.4-4.3c-0.6-0.7-6.1,0-6.7,0.8c-0.9,1.1-0.9,2.4-0.5,3.8
		c0.2,0.7,0.8,1,1.5,1.1C81.1,493.3,81,491.8,81.9,490.3z M113.2,480.4c3.3,0.1,3.2-2.1,3-4.4c-0.1-1.5-1.1-1.8-2.4-1.8
		c-1.4,0-1.4,1-1.4,2c0,2.6,0,5.3,0,7.9c0,1-0.3,2.2,1.2,2.4c0.9,0.2,1.7,0.2,2.2-0.7c0.5-1.1,0.4-2.1-0.4-3.2
		C114.9,481.9,113.6,481.8,113.2,480.4z M96.2,480.8c2.5-1.1,3.5-3.1,2.7-5.4c-0.3-1-1.1-1.2-2-1.2c-0.8,0-1.5,0.4-1.5,1.3
		c-0.1,3.2-0.1,6.4-0.1,9.6c0,0.9,0.6,1.3,1.5,1.4c1,0,1.7-0.2,1.8-1.3C98.8,483.2,98.9,481.3,96.2,480.8z M103.1,499.4
		c0.6,0,0.9,0,1.1,0c1,0,2.2,0.3,2.7-0.9c0.4-1.2,0.4-2.4-0.3-3.5c-0.8-1.1-1.8-0.8-2.7-0.1c-0.6,0.4-1-0.1-1.5-0.3
		c-1.9-0.9-2.9-0.1-2.5,2C100.2,498.4,100.7,500.2,103.1,499.4z M175.5,540.1c-4.8-0.5-9.6,0.5-14.3-0.8c-0.8-0.2-1.8,0.7-2,1.7
		c-0.2,1-0.4,2.1-0.3,3.1c0.2,2-0.7,2.5-2.5,2.2c-2-0.4-4-0.2-6,0.4c1.6,0.3,3.1,0.3,4.7,0.3c4.2,0,4.2,0,5-4.1
		c0.1-0.4,0.2-0.7,0.2-1.1c0.1-0.6,0.4-1.1,1.1-1.1c0.6,0,0.9,0.5,1.2,1.1c0.4,0.9-0.2,2.1,1,3.3c0.1-0.9,0.2-1.4,0.1-1.8
		c-0.4-2.6,0.6-3.5,3.2-3.3C169.7,540.3,172.6,540.1,175.5,540.1z M162.1,546.2c0,0.2,0,0.5,0.1,0.7c10.2,0,20.4,0,30.7,0
		C182.6,546.6,172.4,545.2,162.1,546.2z M90.8,497.6c0,0,0.4,0.1,0.9,0.1c0.9,0.1,1.7,0,2.2-0.9c0.4-0.7,0.4-1.5,0-2.1
		c-0.6-0.8-1.5-0.8-2.3-0.5c-1,0.4-2,0.3-3,0c-1-0.3-1.9,0.1-2.1,1.3c-0.2,1.2,0.4,2,1.6,2.2C88.7,497.8,89.5,497.6,90.8,497.6z
		 M129.3,477.6c0,3.3,0,6.6,0,9.8c0,0.9,0,1.9,1.1,1.9c1.4,0.1,0.9-1.2,0.9-1.9c0.1-2.4-0.1-4.9,0.1-7.3
		C131.5,478.7,131,477.9,129.3,477.6z M-6.9,514.6c0,0.2,0,0.5,0,0.7c6.9,0,13.7,0,20.6,0c0.8,0,1.8,0.3,2.2-0.7
		c0.1-0.3-0.1-0.8-0.3-1c-0.7-1-1.5-0.3-2.2,0c-2.7,1.1-5.4,1.4-8.5,0.9C1.1,513.9-2.9,513.6-6.9,514.6z M81.5,483.5
		c-0.1-1,0.5-2.6-1.5-2.4c-2.2,0.1-1.8,2.1-2.1,3.4c-0.3,1.2,0.2,2,1.6,2C81.8,486.6,81.5,485,81.5,483.5z M81.6,477.1
		c-0.1-1.2,0.5-2.9-1.6-2.9c-2,0-1.7,1.7-1.7,2.9c0,1.2-0.6,2.8,1.6,2.8C82.2,479.9,81.4,478.2,81.6,477.1z M111.9,494.9
		c-0.5-0.1-1.3-0.2-2-0.2c-1.2,0.1-2.1,0.7-1.8,1.9c0.2,1.2,1.3,1.3,2.2,0.9c0.9-0.3,1.8-0.5,2.7-0.4c1.1,0.1,2.4-0.1,2.4-1.4
		c0-1.5-1.5-0.9-2.4-1C112.7,494.7,112.4,494.8,111.9,494.9z M86.7,484c-0.2,1.3-0.4,2.5,1.5,2.5c1.7,0,2-1.1,1.9-2.4
		c-0.1-1.1,0.8-2.8-1.5-3C86.2,481,86.9,482.8,86.7,484z M90.2,477.3c-0.1-1.3,0.5-2.9-1.9-2.9c-2.4,0.1-1.4,1.8-1.5,2.8
		c-0.1,1.1-0.7,2.7,1.6,2.7C90.6,479.9,90.1,478.4,90.2,477.3z M75,467.1c2.5,0,5,0,7.5,0c1.1,0,2-0.5,2-1.5c0-1.5-1.4-0.7-1.9-0.6
		C79.9,465.1,77.6,466.5,75,467.1z M96.3,448.5C96.7,448.5,96.8,448.5,96.3,448.5v-20.8c0.5,0,0.4,0,0,0V448.5z M95.3,497.1
		c0.2,0.8-0.2,2.4,1.3,2.3c1.9-0.2,1.5-2.3,2-3.6c0.3-0.8-0.1-1.5-1.2-1.4C95.9,494.6,95.3,495.5,95.3,497.1z M85.6,496.2
		c0-1.1-0.2-2.1-1.6-2.1c-1.2,0-1.7,0.7-1.7,1.8c0,1.3,0.5,2.3,1.9,2.3C85.5,498.3,85.5,497.2,85.6,496.2z M202.3,502.5
		c-0.4,2.2-0.5,3.9-0.3,5.7c0.1,0.7,0.5,1.2,1.3,1.3c0.6,0,0.9-0.4,0.9-0.9C204,506.6,204.7,504.4,202.3,502.5z M-7.4,544.9
		c-4,0-8,0-12,0C-15.5,545.7-11.5,546-7.4,544.9z M82.3,610.9L82.3,610.9h-20l0,0H82.3z M89.3,471.9c0-1,0-0.9,0.1-1h18.9v1H89.3z
		 M370.8,589.2c-1.4,0.3-1.4,1.3-1.2,2c0.1,0.7-0.6,2.3,0.9,1.9c1.2-0.3,3.4,0.6,3.4-1.4C373.8,590.6,371.2,590.9,370.8,589.2z
		 M97.3,457.6c-0.1-1-0.7-1.5-1.7-1.5c-1.5,0-1.5,1.1-1.5,2.2c0,0.9,0.3,1.5,1.3,1.3C96.5,459.4,97.3,458.9,97.3,457.6z M15.4,535.6
		c0.7-2.4,0.5-4.3,0.5-6.1c0-0.5-0.2-1-0.8-0.9c-0.6,0.1-0.7,0.6-0.7,1.1C14.3,531.5,14.4,533.3,15.4,535.6z M5.4,507.6
		c0.3,0,0.6,0.1,0.9,0.1c0-3.1,0-6.2,0-9.3C5.9,501.5,5,504.5,5.4,507.6z M76,464.1c0.5,0.1,0.7,0.2,1,0.2c1.3,0,2.4-0.3,2.4-2
		c0-0.7,0.4-1.9-0.4-2c-1.4-0.2-1.6,1.3-2.1,2.2C76.7,463.1,76.3,463.5,76,464.1z M30.8,536c0.4-2.4,1-4.9-0.2-7.3
		C30,531.2,29.9,533.6,30.8,536z M297.6,596.9c0-1,0-0.9,0-1h14.8c0,0.1,0,0,0,1H297.6z M85,460.5c-0.2-0.5,0.5-1.6-0.8-1.6
		c-1.7,0-1.3,1.3-1.3,2.3c0,0.6-0.5,1.7,0.9,1.5C85.1,462.6,85,461.6,85,460.5z M88.2,459.9c0.4,0.4-0.5,1.5,0.7,1.4
		c1.2,0,1.8-0.8,1.7-2c-0.1-0.6,0.5-1.6-0.9-1.6C87.9,457.6,88.6,459,88.2,459.9z M157.4,530.2c-0.4,1.6-0.7,3.1-1.1,4.7
		c-0.2,0.9,0.6,0.4,0.8,0.6c0.3,0.2,0.9,0.8,0.9-0.1C158,533.7,158.4,531.9,157.4,530.2z M117.2,497c0.2,0.5-0.3,1.6,0.7,1.6
		c1,0,1.8-0.7,1.7-1.8c-0.1-0.8,0.1-2-1-1.9C117.3,494.9,117.4,496.1,117.2,497z M97.1,422.2c-0.9,0.2-1.2,0.9-1.5,1.4
		c-0.6,0.8-0.5,1.6,0.2,2.3c0.3,0.3,0.7,0.8,1.2,0.6c0.9-0.4,0.5-1.3,0.5-2C97.4,423.7,97.7,422.9,97.1,422.2z M-0.7,489.3
		c2.5-0.4,4.9,0.1,6.1,0.2C4.2,490.1,1.9,486.4-0.7,489.3z M177.4,530.4c-0.5,1.5-0.8,3.1,0.2,4.5
		C177.8,533.4,178.3,531.9,177.4,530.4z M-32.1,622.8c2.7,1,4.6,0.2,6.5-0.3C-27.5,622.6-29.5,621.5-32.1,622.8z M257.3,581.4
		c-0.6,0.2-1.7,0-1.6,1c0,0.7,0.7,1.1,1.5,1c0.7-0.1,1.6-0.3,1.7-1.1C258.9,581.5,258,581.5,257.3,581.4z M6.7,617.7
		c2.7,0.8,4.6,0.8,7.2-0.2C11.3,617.1,9.4,617.4,6.7,617.7z M88.4,499.9c0-0.7-0.1-0.8-0.1-1H79c0,0.2,0,0.3,0,1H88.4z M161.5,534.9
		c0.5-1.5,1.4-3,0-4.9C160.6,531.7,161.4,533.3,161.5,534.9z M95.7,549c0-0.8-0.4-1.3-1.2-1.2c-0.7,0-1.3,0.4-1.2,1.2
		c0.1,0.7,0.3,1.4,1.2,1.3C95.3,550.4,95.6,549.7,95.7,549z M19.3,528.8c-1.2,1.7-0.5,3.2-0.8,4.6c-0.1,0.4,0.1,0.8,0.6,0.8
		c0.4,0,0.7-0.3,0.5-0.8C19,532.1,20.1,530.7,19.3,528.8z M34.5,533.6c0.4-1.6,1.2-3.1,0.3-5.5C33.9,530.4,34,532,34.5,533.6z
		 M145.5,515.9c0-0.2,0-0.3,0-1h-8.1c0,0.7,0,0.8,0,1H145.5z M-48.7,510c-2-1.4-4-0.7-4.5,1.2C-52.3,509.6-50.6,509.8-48.7,510z
		 M226.4,591.3c0.4-1.2,3.1-1,2.1-3.2C226.6,589.5,226.6,589.5,226.4,591.3z M189.9,530.2c-1,1.7-0.7,2.7,0,3.7
		C190.3,532.9,190.5,531.8,189.9,530.2z M46.4,534c0.9-2.9,0.9-2.9-0.1-4.5C45.9,530.9,45.9,532.1,46.4,534z M78.2,472.5
		c2.6,1.3,4.5,0.7,6.4,0.4C82.7,472.8,80.9,472.7,78.2,472.5z M-78.8,597.1c-0.3-0.2-0.3-1.1-1.1-0.8c-0.6,0.2-1,0.8-1,1.5
		c0,0.6,0.3,1.1,1,1C-79,598.6-78.8,598-78.8,597.1z M-0.3,533.3c0.6-1.7,0.7-2.9,0.1-4.5C-1.1,530.4-1.1,531.5-0.3,533.3z
		 M100,551.5c0.1-0.6-0.2-0.9-0.7-1c-0.7-0.2-1.1,0.3-1.2,0.8c-0.2,0.7,0.4,1,0.9,1.2C99.6,552.7,99.8,552,100,551.5z M190.7,507.8
		c0.2,0,0.4,0,0.5,0c0-1.7,0-3.5,0-5.2c-0.1,0-0.2,0-0.2,0C190.9,504.4,190.8,506.1,190.7,507.8z M174.2,534.6
		c0.4-1.8,0.5-3-0.2-4.1C173.4,531.7,173.5,532.9,174.2,534.6z M17.5,616.9c1.2,0.8,2.3,0.6,3.5,0C19.8,616.9,18.6,616.9,17.5,616.9
		z M104.1,554c-0.1-0.5-0.4-0.8-0.9-0.8c-0.6,0.1-1,0.4-0.9,1.1c0.1,0.5,0.4,0.8,0.9,0.8C103.7,555,104,554.5,104.1,554z
		 M-144.6,554.6l0.1-0.7h-3.5l0,0.3C-145.9,554.5-146.8,554.4-144.6,554.6z M78.5,589.6c0-0.6-0.2-0.9-0.8-0.9
		c-0.6,0-0.9,0.3-0.9,0.8c0,0.6,0.3,0.9,0.8,0.9C78.2,590.4,78.4,590.1,78.5,589.6z M205,504.4c-0.6,1.5-0.6,2.6,0,4.1
		C205.9,507.1,206,506,205,504.4z M77.8,574.7c-0.5,0.1-0.9,0.3-0.9,0.9c0,0.6,0.3,0.8,0.9,0.8c0.6,0,0.8-0.3,0.8-0.9
		C78.6,574.9,78.4,574.6,77.8,574.7z"/>
	<path class="st0" d="M187.6,625.9c-1.8-2.2-4.5-2.3-6.9-2.7c-4.3-0.7-8.4-2.1-12.6-3.2c-0.7-0.2-1.4-0.5-1.8-1.3
		c1-0.9,2.1-0.5,3.2-0.3c7.5,1.1,15.1,2.2,22.5,3.8c1.8,0.4,3.6,0.5,5.2,2.3c1,1.2,3.4,0.4,5.2,0.4c4.1,0,8.2,0.3,12.3,1.1
		C205.7,625.9,196.6,625.9,187.6,625.9z"/>
	<path class="st0" d="M319.4,625.9c0.6-0.1,1.3-0.3,1.9-0.4c14.8-0.3,29.5-0.6,44.3-0.9c5.5-0.1,11.1-0.3,16.6-0.5
		c0,0.2,0,0.4,0,0.6c-8.4-0.2-16.7,0.7-25,0.5c-2.8-0.1-5.6-0.3-8.4,0.6C339,625.9,329.2,625.9,319.4,625.9z"/>
	<path class="st0" d="M348.9,625.8c2.7-0.9,5.6-0.7,8.4-0.6c8.4,0.2,16.7-0.7,25-0.5c0.3,1.7-1,1.1-1.7,1.1
		C370.1,625.9,359.5,625.8,348.9,625.8z"/>
	<path class="st0" d="M382.3,588.5c-0.9-0.1-1.2,0.9-1.9,1.1c-1,0.3-1.6-0.3-2.1-1c-0.7-0.8-0.1-1.5,0.2-2c0.6-1,1.1,0.1,1.5,0.3
		c1.1,0.7,1.7,0,2.3-0.7C382.3,587,382.3,587.7,382.3,588.5z"/>
	<path class="st0" d="M218.4,463.9c-1.1-3.5-0.6-6.6-1.9-9.5c-0.8-1.9-1.9-2.5-3.6-3c-3.6-1.2-3.6-1.7-1.2-4.4
		c2.1-2.3,4.2-4.5,6.5-6.6c3-2.7,2.6-4.6-1.1-5.9c-2.4-0.8-2-2-1-3.5c5.2-8,10.3-15.9,15.5-23.9c0.8-1.2,1.4-2.4,1-4
		c-0.4-1.9,1-2.6,2.4-2.7c1.5-0.1,2.8,0.5,2.7,2.5c-0.1,1.8,1,3.2,1.9,4.6c5.6,8.2,11.2,16.3,16.9,24.4c1.2,1.7,1.8,2.9-1.1,3.1
		c-0.9,0.1-1.8,0.2-2,1.5c-0.3,1.4,0.4,2.5,1.4,3.1c2.3,1.5,4.8,2.7,7.2,4c3.3,1.8,3.6,2.2,0.4,4.2c-5.9,3.5-5.2,8.8-4.5,14.2
		c0.2,1.6,1.1,2.9,2.8,3.5c2.1,0.7,1.6,1.6,0.2,2.7c-1.4,1.1-2.8,2.2-4.1,3.4c-1.3,1.1-2.8,2-1.3,4.2c0.8,1.1-0.7,1.9-1.4,2.4
		c-2.7,1.8-3.4,4.2-3.2,7.3c0.3,3.9,0.3,7.9,0.4,11.9c0.1,1.6,0,2.6-2.1,1.8c-3.1-1.2-6.4-0.5-9.5-0.7c-1.7-0.1-3-0.2-3-2.4
		c0-1.2-0.6-1.9-1.8-2.2c-4.6-1.5-6.2-5-6.5-9.4c-0.1-1.5-0.1-2.5-2.3-2.7c-1.5-0.1-2.9-1.9-4.3-3c-1-0.8,0.1-1.3,0.5-1.8
		c2.3-2.9,5.8-2.2,8.9-2.9c1.3-0.3,2.6-0.4,3.9-0.6c0.6-0.1,1.2-0.2,1.2-1c0-0.9-0.7-1.1-1.4-1c-1.6,0.2-3.2,0.5-4.7,0.9
		c-2.6,0.7-5.4-0.2-7.8,1.8c-1.1,0.9-2.2-0.5-3.2-1.1c-5-3.1-5-3.1-0.8-7.2c1.7-1.6,3.9-2.3,6.2-2.6c2.2-0.3,3.6-2,2.4-3.6
		c-1.2-1.5-2-3.4-3.8-4.4c-0.2-0.1-0.5-0.2-0.6-0.4c-0.3-0.5,0.2-1.9-0.9-1.4c-1.1,0.6-2.9,0.4-3.2,2.3
		C217.9,458.4,218.6,460.8,218.4,463.9z M256.8,457.6c-0.1-0.9-0.1-2.3-0.3-3.7c-0.1-0.5-0.3-1.2-1-1.2c-0.3,0-0.7,0.2-1,0.4
		c-0.9,1-1,7.4-0.3,8.5c0.4,0.6,0.9,1,1.6,0.9c0.9,0,0.9-0.8,0.9-1.4C256.8,460.1,256.8,459.1,256.8,457.6z M235.4,451.6
		c-0.2,2.7-0.3,5.4-0.5,8.1c0,0.5-0.5,1.1,0.1,1.5c0.2,0.2,0.7,0,1-0.1c0.8-0.2,0.9-0.8,0.7-1.5C235.9,457,235.7,454.3,235.4,451.6z
		 M238.3,439.9c1.2-0.6,2.5,1.6,3.6-0.4c0.3-0.5,0.3-1.2-0.3-1.5C239.8,437.2,239.3,438.9,238.3,439.9z"/>
	<path class="st0" d="M-44.3,406.4c-1.6,6.4-3.2,12.8-4.9,19.6c1.3-0.3,1.3-1.2,1.4-1.8c1.6-6.2,3.3-12.4,4.8-18.6
		c0.2-0.7,0.9-1.7-0.1-2.3c-1.4-0.8-1-1.8-0.4-2.5c0.6-0.7,1.5-1.6,2.7-1c0.9,0.4,2,0.8,1.8,2.2c-0.3,1.6,0.6,2.7,1.4,3.9
		c5.2,8.3,10.3,16.7,15.5,25c1.1,1.7,1.3,2.6-1.1,3.2c-4.2,1.2-4.7,3.6-1.8,6.9c2.1,2.3,4.1,4.6,6.3,6.9c1.4,1.5,1.2,2.6-0.6,3.1
		c-4,1-4.9,4-4.9,7.4c-0.1,3.2-1.2,6.7,2.2,9.1c1,0.7,1.2,1.5-0.2,2.3c-1.2,0.7-2.3,1.7-3.4,2.5c-1.6,1.3-3.1,2-4.8,0.1
		c-0.4-0.5-1.4-1.2-1.9-0.3c-0.5,0.9,0.2,1.5,1.1,1.9c0.6,0.3,1.1,0.7,1.7,1c1.5,1.1,2,2.1,0.2,3.4c-3.4,2.4-5.2,5.7-5.2,10
		c0,2.3-1.2,4.5-0.9,6.9c0.2,1.3-0.8,1.8-2.1,1.5c-4.7-0.8-9.4-0.9-14.1-0.6c-1.3,0.1-1.6-0.5-1.6-1.7c0.1-3.6,0-7.2,0-10.8
		c0-1.4-0.2-2.3-1.9-2.9c-2.8-0.9-3.5-4.3-5.7-6c-0.6-0.5,0.2-0.9,0.7-1.1c1.5-0.6,3-1.1,4.5-1.6c0.6-0.2,1.4-0.3,1.1-1.3
		c-0.3-0.8-1.1-0.9-1.6-0.6c-5.5,3.1-7.5-2.4-10.8-4.5c-1.1-0.7-0.4-1.2,0.5-1.4c3.4-0.5,4.1-2.8,3.7-5.7c-0.1-0.8-0.1-1.7,0-2.5
		c0.5-3.2-0.3-5.7-3.3-7.4c-0.7-0.4-1.3-1.1-1.9-1.7c-1.4-1.2-1.6-2.1,0.4-3.1c3.7-1.8,7.2-3.9,9.5-6.8c-1.2-2.1-3.3-3.4-6-3.3
		c6.3-9.4,12.5-18.7,18.8-27.9C-44.9,406.2-44.6,406.3-44.3,406.4z M-28.8,460.7c-0.3,2.2,1,2.8,2.3,3.3c0.6,0.2,1.2-0.1,1.3-0.7
		c0.4-2.9,1.1-5.8-0.2-8.6c-0.6-1.2-1.7-1.9-3.4-0.6c-2.5,1.8-2.3,4.2-2.4,6.6c0,0.7-0.4,1.7,0.6,1.9
		C-29.7,462.7-29.5,461.6-28.8,460.7z M-60.7,452.1c-1.5,2.3-0.9,4.9-1.2,7.3c-0.1,1,0,2.4,1.4,2.3c2-0.1,0.3-1.3,0.4-2
		c0-0.3,0-0.6,0.2-0.8C-57.3,456.5-60.2,454.4-60.7,452.1z M-55.8,452.4c-0.6,0.9-0.6,2-1.2,2.8c-1.1,1.4-0.6,2.8,0,4.2
		c0.3,0.6,0.5,1,1.2,0.8c0.5-0.2,0.7-0.6,0.5-1.1C-56,456.9-55.1,454.6-55.8,452.4z M-40.8,450.7c-1.2,3.2-0.6,5.9-1.3,8.4
		c-0.2,0.6,0.2,1.1,0.9,1.1c0.7,0,0.9-0.6,0.8-1.2C-40.5,456.5-40.6,454-40.8,450.7z M-36.6,473c0-0.2,0.1-0.3,0.1-0.5
		c-1.4-0.7-2.8-1.4-4.2-2c-0.7-0.3-1.4-0.1-1.7,0.6c-0.4,1,0.7,1,1.2,1.1C-39.8,472.5-38.2,472.7-36.6,473z M-55.7,440.4
		c4.2,0.8,4.4,0.7,4.1-2.7C-53.1,438.3-54.5,439-55.7,440.4z"/>
	<path class="st0" d="M-84.2,534.6c5.2,0,9.7,0,14.2,0c1.4,0,2,0.4,1.8,2c-0.6,5.3-1,10.7-0.9,16c0.1,2.3-0.8,3.2-3.1,3.1
		c-2.5-0.1-5.1-0.2-7.6,0c-2.1,0.1-2.8-0.5-2.7-2.7c0.3-5,0.4-10,0.6-14.9C-81.7,536.5-81.8,535.2-84.2,534.6z M-81.4,553.8
		c0.5-1.4,0.4-2.7-0.1-4C-81.9,551.1-82,552.4-81.4,553.8z"/>
	<path class="st0" d="M228.7,515c-0.1-0.9-0.1-1.9-0.2-2.8c-0.3-3.3,1.1-4.3,4.3-3.2c1,0.3,1,1,1,1.8c0.1,3,0.1,6,0.2,9
		c0,2.2-1.5,2-2.9,2c-1.5,0-2.6-0.4-2.5-2.2c0.1-1.5,0-3,0-4.5C228.6,515,228.7,515,228.7,515z"/>
	<path class="st0" d="M253.1,514.9c0-1.2,0.1-2.5,0-3.7c-0.2-1.9,0.4-2.7,2.5-2.6c2.1,0.1,1.9,1.2,1.7,2.6c-0.2,2-0.2,3.9,0.3,5.9
		c0.3,1.3,0.3,2.7-0.9,3.6c-0.7,0.6-1.6,1.1-2.6,0.8c-1-0.3-0.8-1.4-0.8-2.2c0-1.5,0-3,0-4.5C253.2,514.9,253.1,514.9,253.1,514.9z"
		/>
	<path class="st0" d="M-33.2,513.9c0-1.4,0-2.8,0-4.2c0-1.6,0.5-2.2,2-1c0.7,0.6,1.7,1,1.8,2.1c0.1,3,0,6,0,9c0,0.9-0.6,1.7-1.6,1.5
		c-1.2-0.1-1.9-0.9-2-2C-33.3,517.5-33.2,515.7-33.2,513.9C-33.2,513.9-33.2,513.9-33.2,513.9z"/>
	<path class="st0" d="M-80.5,558.6c1.6,0.1,3.1-0.6,4.1,0.8c0.3,0.4-0.1,0.9-0.6,1C-78.5,560.6-79.8,560.4-80.5,558.6z"/>
	<path class="st0" d="M236.9,394.4c-0.4,1.1-1,1.8-1.8,1.9c-0.8,0.1-1.7-0.4-1.8-1.3c-0.1-0.9,1-1.2,1.5-1.3
		C235.5,393.6,236.2,394.2,236.9,394.4z"/>
	<path class="st0" d="M99.7,403.2c-1.3,2.1-2.6,2.2-4,0.3C96.8,402.1,98.1,402.5,99.7,403.2z"/>
	<path class="st0" d="M-43.4,393.4c1.6-0.6,2.8-1.1,3.8,0c0.5,0.6-0.1,0.9-0.5,1.3C-41.8,395.9-42.1,394.2-43.4,393.4z"/>
	<path class="st0" d="M236.1,390.4c-0.4,0.6-0.7,1.3-1.5,1.1c-0.5-0.1-1.2-0.4-1.1-1.1c0.1-0.6,0.7-0.9,1.3-0.9
		C235.3,389.6,236,389.7,236.1,390.4z"/>
	<path class="st0" d="M0,540.1c0.2,0.1,0.4,0.2,0.4,0.3c1.1,4.2,1.1,4.2,5.6,4.2c6.4,0,12.8,0,19.2,0c1.5,0,2.4-0.4,2.7-2.1
		c0.6-4.3,0.6-4.3,5-4.1c0.4,0,0.9,0,1.7,0c-2.9,1.3-1.8,3.5-1.6,5.3c0.2,1.8,2,1.1,3,1.1c4.4,0.2,8.8,0.2,13.2,0.3
		c4.3,0,4.9-0.5,4.6-4.9c-0.1-1.2-0.1-1.7,1.3-1.6c16.9,1.2,33.9,0.8,50.9,0.9c8.1,0.1,16.2,0.1,24.3,0.1c2.1,0,2.9,0.6,2.8,2.8
		c-0.1,1.6-0.7,1.9-2.1,1.9c-1.9-0.1-3.8,0-5.7-0.1c-2.6-0.1-2.3,1.7-2.1,3.3c0.2,1.5,0.5,3,2.6,1.8c0.9-0.5,1.7-0.1,2.1,0.7
		c0.6,1.1,1.4,1.9,2.8,2c1.8,0.1,1.3,1.6,1.3,2.6c0,9.8,0,19.6,0,29.4c0,6.1,0,12.2-0.6,18.3c0-1.2,0-2.4,0-3.6
		c0-0.8-0.1-1.6-1.2-1.6c-0.8,0-1.7,0.5-1.6,1.3c0.6,5.5-5.1,5.7-7.4,8.7c-0.6,0.8-1.3,0.2-1.8-0.5c-0.9-1.2-0.8-2.7-0.8-4.1
		c-0.1-18.8-0.3-37.5,0.2-56.3c0-1.6-0.4-2.2-2-2.2c-14.5,0-29.1,0-43.6-0.1c-2,0-2.3,0.9-2.3,2.6c-0.1,9.8-0.3,19.6-0.5,29.4
		c-0.2,8.9-0.4,17.7-0.6,26.6c-0.1,3.2-1.2,4.6-4.3,5.3c-1.3,0.3-2.7,0.8-3.9,0.5c-2.5-0.5-3.9,0.6-5.1,2.8
		c-0.1-14.9,0-29.5,0.3-44.1c0.1-5.4,0.1-10.8,0.1-16.1c0-1.6,0-3.1,2.2-1.5c0.4,0.3,1.3,0.7,1.5,0.2c1.1-2.2,2.4-2.2,4.5-1.2
		c0.8,0.4,0.7-1.6,0.9-2.6c0.2-1,0.1-1.9-1.3-1.9c-1.6,0-3.2-0.3-4.8,0c-2.5,0.3-4.1-0.1-3.9-3.2c-0.8,1.9-1.2,3.6,0.2,5.2
		c-19.4,0-38.6,0-57.9,0c2.1-1.7,0.8-4.2,1.8-5.9C0.1,540,0,540.1,0,540.1z M31.5,542.8c-0.2-0.9,0.6-2.5-0.9-2.5
		c-1.8-0.1-1.4,1.7-1.5,2.8c-0.1,1-0.3,2.3,1.3,2.2C32,545.1,31.2,543.7,31.5,542.8z"/>
	<path class="st0" d="M48.8,501.5c-0.2,2.7-0.4,4.9-0.6,7.5c1.8-1.5,0.8-3.7,2.3-4.8c0.9,0.4,0.6,1.2,0.3,1.6
		c-1.7,3.4,0.8,5.5,2.4,7.9c0.3,0.5,0.8,0.9,0.5,1.5c-0.2,0.5-0.7,0.4-1.2,0.4c-10.4-0.1-20.7-0.2-31.1-0.3c-1,0-2.6,0.5-2.8-0.9
		c-0.2-1.4,0.1-2.7,2-3.4C29.9,507.8,39.1,504.3,48.8,501.5z"/>
	<path class="st0" d="M98.5,488c-0.6,1.8,1.8,4.5-1.5,5.2c-4.1,0.9-5.6,0.2-6.3-2.8c-0.6,1.4-0.6,3.2-2.6,2.8
		c-1.1-0.2-1.3-1-1.3-1.9c0-1.2-0.5-2.9,1.2-3.4c2.1-0.6,4.4-1.2,6.5,0c0.4,0.2,0.6,0.4,1,0.2c4-1.7,8,0.2,11.9-0.2
		c2.1-0.2,4.2-0.2,6.3,0c1,0.1,1.6,0.5,1.8,1.4c0.3,1,0.3,2.2-0.4,3c-0.7,0.8-1.4,0.1-2.2-0.2c-1.9-0.8-3.7,1.2-5.7,0.5
		c-0.7-0.2-1.5,0.2-2.2,0.2c-4.4,0.2-4.4,0.2-5.5-4.2C99.4,488.2,99.2,487.9,98.5,488z"/>
	<path class="st0" d="M-6,556.6c0-1.6-0.1-3.2,0-4.8c0-1.1-0.2-2.8,1.3-2.6c1.4,0.2,3.5-0.1,4.1,1.7c0.9,2.3,1.8,4.7,0.5,7.3
		c-0.8,1.6-0.2,3.3,0,5c0.4,3.3-0.9,6.1-3.2,6.8c-2.4,0.7-3.4,0.1-3.4-2.4C-6.6,563.9-5.7,560.3-6,556.6z"/>
	<path class="st0" d="M197.3,560.9c0,2.3,0,4.7,0,7c0,0.6-0.1,1.5-0.5,1.8c-0.7,0.5-1.1-0.4-1.6-0.7c-0.5-0.3-1.2-1-1.7-0.9
		c-3,0.4-3.1-1.5-3.1-3.7c0-3.5,0-6.9,0-10.4c0-1.2,0.1-2.7,2.1-1.6c0.2,0.1,0.5,0.2,0.8,0.2c3.8-0.3,3.8-0.3,3.8,3.5
		c0,0.8,0,1.7,0,2.5c0,0.8,0,1.5,0,2.3C197.2,560.9,197.3,560.9,197.3,560.9z"/>
	<path class="st0" d="M32.5,556.3c1.5,3.8-1.9,7.2-2.4,11.1c-0.1,0.8-0.8,1.6-1.8,1.4c-0.9-0.1-1.7-0.8-1.6-1.7
		c0.7-3.6-1.1-7-0.5-10.5c0.3-2,0.1-4.1,0.1-6.2c0-1.3,0.3-1.8,1.9-1.2C32.3,550.7,32.3,550.6,32.5,556.3z"/>
	<path class="st0" d="M327.2,610.2c-1.9,0.2-3,0.3-5,0.6c1.9,1,3.2,1.7,3.2,3.7c0.1,1.8-0.1,2.8-2.1,2.6c-1.5-0.1-3.4,0.4-3.1-2.6
		c0.4-3.9,0.2-7.9,0.3-11.8c0-1.3-0.2-2.8,1.7-3c0.8-0.1,0.8-0.5,0.6-1.2c-0.3-0.9,0.4-1.6,1.1-1.7c1.2-0.1,0.9,1,0.9,1.6
		c0.1,2.2,0.2,4.5,0.2,6.8C325.3,607,325.5,608.6,327.2,610.2z"/>
	<path class="st0" d="M199.8,544.6c-1,0.4-2.2-0.2-3.5,1.1c2.8,0.3,5.3,0.8,7.7,0.6c3-0.2,6-0.3,9,0c3.1,0.3,4.8-2,3.9-5
		c-0.3-1.1-1.3-0.5-1.9-0.7c6.1-0.7,7-0.1,6,4.6c-0.5,0-0.5-0.5-0.5-0.8c-0.2-1,0.3-2.6-1.3-2.6c-1.5,0-1,1.5-1.1,2.5
		c-0.1,1.4,0.2,2.5,2,2.3c0.7-0.1,1.4-0.2,2.5,0.5c-5.8,0.9-11.2,0.3-16.7,0.4c-2.7,0-5.5-0.3-8.2-0.3c-1.9,0-2.9-0.5-2.7-2.6
		c0-0.3,0-0.6,0-0.8c-0.1-1.1,0.2-2.7-1.3-2.7c-1.5,0-1.1,1.7-1.2,2.7c-0.1,0.6,0.3,1.3-0.5,2c-0.9-0.7-1.8-1.3-2.5-1.2
		c1.8,0.4,1.8-1.1,1.8-2.9c0.1-2.2-1.5-1.5-2.6-1.6c-2.4-0.1-4.8,0-7.3-0.1c3.9-0.5,7.9,0.2,11.8-0.8c1.2-0.3,2.5,1,2.5,2.2
		C195.7,544.7,197.7,544.7,199.8,544.6z"/>
	<path class="st0" d="M107.5,479.9c0,1.5,0,3,0,4.5c0,1.3-0.5,2-1.8,1.9c-1.3,0-1.8-0.7-1.8-2c0.1-3,0-6,0.1-9c0-0.7-0.3-2.1,1-1.9
		c1,0.2,2.9,0.1,2.7,2.2C107.5,477.1,107.5,478.5,107.5,479.9C107.5,479.9,107.5,479.9,107.5,479.9z"/>
	<path class="st0" d="M81.9,490.3c-0.9,1.5-0.8,3-2.4,2.8c-0.7-0.1-1.3-0.4-1.5-1.1c-0.4-1.3-0.3-2.6,0.5-3.8
		c0.6-0.8,6.1-1.5,6.7-0.8c1.1,1.3,0.4,2.8,0.4,4.3c0,0.8-0.6,1.3-1.5,1.4C82.4,493.3,82.3,491.9,81.9,490.3z"/>
	<path class="st0" d="M113.2,480.4c0.4,1.4,1.7,1.5,2.3,2.3c0.7,1,0.9,2.1,0.4,3.2c-0.5,0.9-1.3,0.9-2.2,0.7
		c-1.5-0.3-1.2-1.5-1.2-2.4c0-2.6,0-5.3,0-7.9c0-1,0-2,1.4-2c1.2,0,2.3,0.3,2.4,1.8C116.4,478.3,116.5,480.5,113.2,480.4z"/>
	<path class="st0" d="M96.2,480.8c2.7,0.6,2.6,2.4,2.4,4.4c-0.1,1.1-0.9,1.4-1.8,1.3c-0.9,0-1.5-0.4-1.5-1.4c0-3.2,0-6.4,0.1-9.6
		c0-0.9,0.7-1.3,1.5-1.3c0.9,0,1.6,0.2,2,1.2C99.7,477.7,98.8,479.7,96.2,480.8z"/>
	<path class="st0" d="M103.1,499.4c-2.4,0.8-2.9-1-3.2-2.9c-0.3-2.1,0.6-2.8,2.5-2c0.5,0.2,0.9,0.7,1.5,0.3c0.9-0.6,1.9-1,2.7,0.1
		c0.8,1.1,0.8,2.3,0.3,3.5c-0.5,1.3-1.7,0.9-2.7,0.9C104,499.4,103.7,499.4,103.1,499.4z"/>
	<path class="st0" d="M175.5,540.1c-2.9,0-5.8,0.2-8.7-0.1c-2.6-0.2-3.6,0.7-3.2,3.3c0.1,0.4,0,0.9-0.1,1.8c-1.2-1.2-0.6-2.4-1-3.3
		c-0.2-0.5-0.5-1-1.2-1.1c-0.7,0-0.9,0.5-1.1,1.1c-0.1,0.4-0.2,0.7-0.2,1.1c-0.8,4.1-0.8,4.1-5,4.1c-1.6,0-3.1,0-4.7-0.3
		c2-0.6,4-0.8,6-0.4c1.8,0.3,2.7-0.2,2.5-2.2c-0.1-1,0-2.1,0.3-3.1c0.2-1,1.1-1.9,2-1.7C165.9,540.6,170.7,539.6,175.5,540.1z"/>
	<path class="st0" d="M162.1,546.2c10.3-1,20.5,0.4,30.7,0.7c-10.2,0-20.4,0-30.7,0C162.2,546.7,162.2,546.5,162.1,546.2z"/>
	<path class="st0" d="M90.8,497.6c-1.3,0.1-2,0.2-2.7,0.1c-1.2-0.2-1.8-1-1.6-2.2c0.2-1.2,1-1.6,2.1-1.3c1,0.3,1.9,0.4,3,0
		c0.8-0.3,1.7-0.3,2.3,0.5c0.5,0.7,0.4,1.4,0,2.1c-0.5,0.9-1.3,1-2.2,0.9C91.2,497.6,90.7,497.6,90.8,497.6z"/>
	<path class="st0" d="M129.3,477.6c1.7,0.3,2.2,1.1,2.1,2.6c-0.1,2.4,0,4.9-0.1,7.3c0,0.7,0.4,1.9-0.9,1.9c-1.1,0-1.1-1.1-1.1-1.9
		C129.3,484.2,129.3,480.9,129.3,477.6z"/>
	<path class="st0" d="M-6.9,514.6c3.9-1.1,8-0.7,11.8-0.1c3.1,0.5,5.7,0.2,8.5-0.9c0.7-0.3,1.5-1,2.2,0c0.2,0.3,0.4,0.8,0.3,1
		c-0.4,1.1-1.4,0.7-2.2,0.7c-6.9,0-13.7,0-20.6,0C-6.8,515.1-6.9,514.9-6.9,514.6z"/>
	<path class="st0" d="M81.5,483.5c0,1.5,0.2,3.1-2,3c-1.4-0.1-1.9-0.9-1.6-2c0.3-1.3-0.2-3.3,2.1-3.4C82,481,81.4,482.6,81.5,483.5z
		"/>
	<path class="st0" d="M81.6,477.1c-0.2,1.1,0.6,2.8-1.7,2.8c-2.2,0-1.6-1.6-1.6-2.8c0-1.2-0.3-2.9,1.7-2.9
		C82.1,474.2,81.5,475.9,81.6,477.1z"/>
	<path class="st0" d="M111.9,494.9c0.5-0.1,0.8-0.2,1-0.1c0.9,0.1,2.4-0.5,2.4,1c0,1.3-1.3,1.5-2.4,1.4c-1-0.1-1.8,0-2.7,0.4
		c-1,0.4-2,0.3-2.2-0.9c-0.2-1.3,0.7-1.9,1.8-1.9C110.6,494.7,111.4,494.8,111.9,494.9z"/>
	<path class="st0" d="M86.7,484c0.2-1.2-0.5-3,1.9-2.8c2.3,0.2,1.4,1.8,1.5,3c0.2,1.3-0.1,2.4-1.9,2.4
		C86.2,486.5,86.5,485.3,86.7,484z"/>
	<path class="st0" d="M90.2,477.3c-0.1,1.1,0.4,2.6-1.8,2.6c-2.3,0-1.7-1.6-1.6-2.7c0.1-1-0.9-2.7,1.5-2.8
		C90.7,474.3,90.1,475.9,90.2,477.3z"/>
	<path class="st0" d="M75,467.1c2.6-0.5,4.9-1.9,7.5-2.1c0.5,0,2-0.8,1.9,0.6c0,1-0.9,1.5-2,1.5C80,467.1,77.5,467.1,75,467.1z"/>
	<path class="st0" d="M0,540.3c0,0,0.1-0.1,0.1-0.1c-2.1-0.8-2.9,0-2.9,2.2c-0.1,2.8-0.2,2.8-2.8,3.6c1.5-1.6,1.6-3.1,1.8-4.7
		c0.4-3-1.8-2.1-3.6-2.4c2-0.1,3.5-0.1,5.1-0.3C-0.9,538.3-0.3,539,0,540.3z"/>
	<path class="st0" d="M96.3,448.5v-20.8c0.4,0,0.5,0,0,0V448.5C96.8,448.5,96.7,448.5,96.3,448.5z"/>
	<path class="st0" d="M95.3,497.1c0-1.6,0.6-2.5,2-2.7c1-0.1,1.5,0.6,1.2,1.4c-0.5,1.3,0,3.4-2,3.6
		C95.1,499.5,95.5,497.8,95.3,497.1z"/>
	<path class="st0" d="M85.6,496.2c-0.1,1-0.1,2.1-1.4,2c-1.4-0.1-1.9-1.1-1.9-2.3c0-1.1,0.5-1.8,1.7-1.8
		C85.4,494.1,85.6,495.1,85.6,496.2z"/>
	<path class="st0" d="M202.3,502.5c2.4,1.9,1.8,4.1,1.8,6c0,0.5-0.3,0.9-0.9,0.9c-0.8,0-1.2-0.5-1.3-1.3
		C201.7,506.4,201.9,504.7,202.3,502.5z"/>
	<path class="st0" d="M-7.4,544.9c-4,1.1-8,0.7-12,0C-15.5,544.9-11.5,544.9-7.4,544.9z"/>
	<polygon class="st0" points="82.3,610.9 62.3,610.9 62.3,610.9 82.3,610.9 	"/>
	<path class="st0" d="M89.3,470.9h19v1H89.3C89.3,471.1,89.3,471,89.3,470.9z"/>
	<path class="st0" d="M370.8,589.2c0.3,1.7,3,1.5,3,2.6c0.1,2-2.2,1-3.4,1.4c-1.4,0.4-0.7-1.2-0.9-1.9
		C369.4,590.5,369.5,589.5,370.8,589.2z"/>
	<path class="st0" d="M97.3,457.6c0,1.3-0.8,1.8-1.9,2c-1,0.2-1.3-0.5-1.3-1.3c0-1.1,0.1-2.1,1.5-2.2
		C96.6,456.1,97.2,456.6,97.3,457.6z"/>
	<path class="st0" d="M15.4,535.6c-1-2.3-1.2-4.1-1-6c0.1-0.5,0.2-1,0.7-1.1c0.6-0.1,0.8,0.5,0.8,0.9
		C16,531.3,16.2,533.2,15.4,535.6z"/>
	<path class="st0" d="M5.4,507.6c-0.4-3.1,0.5-6.1,0.9-9.2c0,3.1,0,6.2,0,9.3C6,507.7,5.7,507.7,5.4,507.6z"/>
	<path class="st0" d="M76,464.1c0.3-0.6,0.7-1,0.9-1.5c0.5-1,0.7-2.4,2.1-2.2c0.8,0.1,0.4,1.3,0.4,2c0,1.6-1.1,2-2.4,2
		C76.7,464.3,76.5,464.2,76,464.1z"/>
	<path class="st0" d="M30.8,536c-0.9-2.4-0.8-4.9-0.2-7.3C31.8,531.2,31.2,533.6,30.8,536z"/>
	<path class="st0" d="M297.6,595.9h14.8c0,0,0,0.1,0,1h-14.8C297.6,596,297.6,596,297.6,595.9z"/>
	<path class="st0" d="M85,460.5c0,1,0.1,2-1.3,2.2c-1.4,0.2-0.9-0.9-0.9-1.5c0.1-0.9-0.3-2.3,1.3-2.3C85.5,459,84.8,460,85,460.5z"
		/>
	<path class="st0" d="M88.2,459.9c0.4-0.9-0.2-2.3,1.5-2.2c1.3,0,0.8,1,0.9,1.6c0.2,1.2-0.4,2-1.7,2
		C87.7,461.3,88.6,460.3,88.2,459.9z"/>
	<path class="st0" d="M157.4,530.2c1,1.7,0.6,3.4,0.6,5.1c0,1-0.6,0.3-0.9,0.1c-0.3-0.2-1,0.3-0.8-0.6
		C156.7,533.4,157,531.8,157.4,530.2z"/>
	<path class="st0" d="M117.2,497c0.2-0.9,0.1-2.1,1.3-2.2c1.1-0.1,1,1.2,1,1.9c0.1,1.1-0.6,1.8-1.7,1.8
		C116.9,498.6,117.4,497.6,117.2,497z"/>
	<path class="st0" d="M97.1,422.2c0.6,0.8,0.3,1.5,0.3,2.2c0,0.7,0.3,1.6-0.5,2c-0.5,0.2-0.8-0.3-1.2-0.6c-0.7-0.7-0.8-1.5-0.2-2.3
		C95.9,423.1,96.1,422.4,97.1,422.2z"/>
	<path class="st0" d="M-0.7,489.3c2.5-2.9,4.9,0.8,6.1,0.2C4.2,489.3,1.8,488.9-0.7,489.3z"/>
	<path class="st0" d="M177.4,530.4c0.9,1.5,0.4,3,0.2,4.5C176.6,533.5,176.8,531.9,177.4,530.4z"/>
	<path class="st0" d="M-32.1,622.8c2.6-1.3,4.6-0.2,6.5-0.3C-27.4,623-29.3,623.8-32.1,622.8z"/>
	<path class="st0" d="M257.3,581.4c0.6,0.2,1.6,0.1,1.5,0.9c0,0.9-0.9,1.1-1.7,1.1c-0.7,0.1-1.4-0.3-1.5-1
		C255.7,581.3,256.7,581.6,257.3,581.4z"/>
	<path class="st0" d="M6.7,617.7c2.7-0.3,4.6-0.6,7.2-0.2C11.3,618.5,9.4,618.5,6.7,617.7z"/>
	<path class="st0" d="M88.4,498.9H79c0,0.3,0,0.2,0,1h9.3C88.3,499.1,88.3,499.2,88.4,498.9z"/>
	<path class="st0" d="M161.5,534.9c-0.2-1.6-1-3.2,0-4.9C162.9,531.8,162.1,533.4,161.5,534.9z"/>
	<path class="st0" d="M95.7,549c-0.1,0.7-0.4,1.3-1.2,1.3c-0.8,0-1.1-0.7-1.2-1.3c-0.1-0.8,0.5-1.2,1.2-1.2
		C95.3,547.8,95.7,548.2,95.7,549z"/>
	<path class="st0" d="M19.3,528.8c0.8,1.8-0.3,3.3,0.3,4.6c0.2,0.4-0.1,0.7-0.5,0.8c-0.5,0-0.7-0.4-0.6-0.8
		C18.8,532.1,18.1,530.5,19.3,528.8z"/>
	<path class="st0" d="M34.5,533.6c-0.5-1.6-0.5-3.2,0.3-5.5C35.7,530.6,34.9,532.1,34.5,533.6z"/>
	<path class="st0" d="M145.5,514.9h-8.1c0,0.8,0,0.7,0,1h8.1C145.5,515.7,145.5,515.8,145.5,514.9z"/>
	<path class="st0" d="M-48.7,510c-1.8-0.2-3.6-0.5-4.5,1.2C-52.7,509.4-50.8,508.7-48.7,510z"/>
	<path class="st0" d="M226.4,591.3c0.2-1.8,0.2-1.8,2.1-3.2C229.4,590.3,226.7,590.1,226.4,591.3z"/>
	<path class="st0" d="M189.9,530.2c0.7,1.6,0.4,2.7,0,3.7C189.2,532.9,188.9,531.9,189.9,530.2z"/>
	<path class="st0" d="M46.4,534c-0.5-1.9-0.5-3.1-0.1-4.5C47.3,531.1,47.3,531.1,46.4,534z"/>
	<path class="st0" d="M78.2,472.5c2.7,0.2,4.5,0.3,6.4,0.4C82.7,473.3,80.8,473.8,78.2,472.5z"/>
	<path class="st0" d="M-78.8,597.1c-0.1,0.8-0.3,1.5-1,1.6c-0.7,0.1-1-0.3-1-1c0-0.7,0.4-1.3,1-1.5C-79.1,596-79.1,596.9-78.8,597.1
		z"/>
	<path class="st0" d="M-0.3,533.3c-0.7-1.8-0.8-2.9,0.1-4.5C0.4,530.4,0.3,531.5-0.3,533.3z"/>
	<path class="st0" d="M100,551.5c-0.2,0.5-0.4,1.2-1.1,1c-0.5-0.1-1.1-0.5-0.9-1.2c0.2-0.5,0.5-1,1.2-0.8
		C99.7,550.6,100.1,551,100,551.5z"/>
	<path class="st0" d="M190.7,507.8c0.1-1.7,0.2-3.5,0.3-5.2c0.1,0,0.2,0,0.2,0c0,1.7,0,3.5,0,5.2
		C191.1,507.9,190.9,507.9,190.7,507.8z"/>
	<path class="st0" d="M174.2,534.6c-0.7-1.7-0.7-2.9-0.2-4.1C174.7,531.6,174.6,532.8,174.2,534.6z"/>
	<path class="st0" d="M17.5,616.9c1.1,0,2.2,0,3.5,0C19.8,617.6,18.7,617.8,17.5,616.9z"/>
	<path class="st0" d="M104.1,554c-0.1,0.6-0.3,1.1-1,1.1c-0.5,0-0.9-0.3-0.9-0.8c-0.1-0.7,0.3-1,0.9-1.1
		C103.6,553.1,104,553.4,104.1,554z"/>
	<path class="st0" d="M-148,554.3l0-0.3h3.5l-0.1,0.7C-146.8,554.4-145.9,554.5-148,554.3z"/>
	<path class="st0" d="M78.5,589.6c-0.1,0.5-0.4,0.9-0.9,0.8c-0.5,0-0.8-0.3-0.8-0.9c0-0.5,0.3-0.8,0.9-0.8
		C78.3,588.7,78.5,589,78.5,589.6z"/>
	<path class="st0" d="M205,504.4c0.9,1.6,0.9,2.7,0,4.1C204.4,507,204.4,506,205,504.4z"/>
	<path class="st0" d="M77.8,574.7c0.6,0,0.8,0.3,0.8,0.8c0,0.6-0.3,0.9-0.8,0.9c-0.6,0-0.9-0.3-0.9-0.8
		C76.9,575,77.3,574.7,77.8,574.7z"/>
	<path class="st0" d="M256.8,457.6c0,1.5,0,2.6,0,3.6c0,0.6,0,1.4-0.9,1.4c-0.7,0-1.2-0.3-1.6-0.9c-0.7-1.2-0.6-7.5,0.3-8.5
		c0.2-0.2,0.6-0.4,1-0.4c0.7,0,0.9,0.6,1,1.2C256.6,455.3,256.7,456.7,256.8,457.6z"/>
	<path class="st0" d="M235.4,451.6c0.3,2.7,0.6,5.3,1.3,7.9c0.2,0.7,0.1,1.3-0.7,1.5c-0.3,0.1-0.8,0.3-1,0.1c-0.5-0.4-0.1-1-0.1-1.5
		C235.1,457,235.2,454.3,235.4,451.6z"/>
	<path class="st0" d="M238.3,439.9c1-1,1.5-2.7,3.3-1.9c0.6,0.3,0.5,1,0.3,1.5C240.8,441.5,239.5,439.3,238.3,439.9z"/>
	<path class="st0" d="M-28.8,460.7c-0.8,0.9-0.9,2-1.8,1.8c-1-0.2-0.7-1.2-0.6-1.9c0.1-2.5-0.1-4.9,2.4-6.6c1.7-1.2,2.8-0.6,3.4,0.6
		c1.3,2.7,0.6,5.7,0.2,8.6c-0.1,0.7-0.7,1-1.3,0.7C-27.8,463.5-29.1,462.9-28.8,460.7z"/>
	<path class="st0" d="M-60.7,452.1c0.5,2.3,3.3,4.3,0.7,6.8c-0.2,0.2-0.2,0.5-0.2,0.8c-0.1,0.7,1.6,1.9-0.4,2
		c-1.4,0.1-1.5-1.2-1.4-2.3C-61.6,457-62.1,454.4-60.7,452.1z"/>
	<path class="st0" d="M-55.8,452.4c0.7,2.2-0.2,4.5,0.5,6.7c0.1,0.5,0,1-0.5,1.1c-0.7,0.2-0.9-0.2-1.2-0.8c-0.6-1.4-1.1-2.8,0-4.2
		C-56.4,454.4-56.4,453.3-55.8,452.4z"/>
	<path class="st0" d="M-40.8,450.7c0.2,3.2,0.3,5.8,0.4,8.3c0,0.6-0.1,1.2-0.8,1.2c-0.7,0-1.1-0.5-0.9-1.1
		C-41.4,456.6-42,453.9-40.8,450.7z"/>
	<path class="st0" d="M-36.6,473c-1.6-0.3-3.1-0.5-4.6-0.8c-0.5-0.1-1.5-0.1-1.2-1.1c0.3-0.7,1-0.9,1.7-0.6c1.4,0.6,2.8,1.3,4.2,2
		C-36.6,472.6-36.6,472.8-36.6,473z"/>
	<path class="st0" d="M-55.7,440.4c1.3-1.4,2.6-2.1,4.1-2.7C-51.3,441.1-51.5,441.3-55.7,440.4z"/>
	<path class="st0" d="M-81.4,553.8c-0.6-1.3-0.5-2.7-0.1-4C-80.9,551.1-80.9,552.4-81.4,553.8z"/>
	<path class="st0" d="M31.5,542.8c-0.3,0.9,0.6,2.3-1.1,2.4c-1.6,0.1-1.4-1.2-1.3-2.2c0.1-1.1-0.4-2.8,1.5-2.8
		C32.1,540.3,31.3,541.9,31.5,542.8z"/>
</g>
<g>
	<line class="st1" x1="8891" y1="8438" x2="8891" y2="8474"/>
	<line class="st1" x1="8837" y1="8492" x2="8873" y2="8492"/>
	<line class="st1" x1="8837" y1="-24274" x2="8873" y2="-24274"/>
	<line class="st1" x1="8891" y1="-24220" x2="8891" y2="-24256"/>
	<line class="st1" x1="-23875" y1="8438" x2="-23875" y2="8474"/>
	<line class="st1" x1="-23821" y1="8492" x2="-23857" y2="8492"/>
	<line class="st1" x1="-23821" y1="-24274" x2="-23857" y2="-24274"/>
	<line class="st1" x1="-23875" y1="-24220" x2="-23875" y2="-24256"/>
</g>
<path class="st0" d="M632.4,608.6v-32c-2,1.2-5.9-1.8-6,4.2c-2.4-2.3-4.1-3.6-5.4-5.1c-5.9-7-11.7-14-17.6-21.1
	c-0.8-1-1.8-1.9-2.6-2.8c-6,2-6.1,2-9.5-3.3c-0.9-1.4-1.7-2.8-2.6-4.3c-4.9-1.4-7.1-1.5-9.2,4c-1.5,3.8-4.3,5.6-8.5,5.4
	c-4.3-0.2-8.7,0-13-0.3c-3.9-0.3-5-2.6-2.8-5.7c2.1-3,4.5-5.7,6.7-8.5c0.7-0.8,1.2-1.8,1.7-2.8c0.7-1.6,1.3-3.2,2.2-5.2
	c-1.3,0.5-2.6,1-4.2,1.6v-3.5c-0.9,0.2-1.6,0.4-3.3,0.8c2.6-3.1,4.7-5.5,6.9-8.1c-1-3.5-2.8-7.1,0.6-10.4c0.4-0.4,0.4-1.2,0.4-1.9
	c0.2-3.1,0.3-6.1,0.3-9.2c0-0.7-0.6-1.6-1.2-1.9c-0.6-0.2-1.9,0.1-2.1,0.5c-3.1,6.3-7.3,12.3-8.5,19c-1,5.3-1.5,10.4-4.4,15
	c-0.4,0.6,0.3,1.8,0.2,2.7c-0.1,0.8-0.7,1.6-1.1,2.4c-0.4,0-0.8-0.1-1.2-0.1c-0.6-4.5-1.3-9-1.8-13.6c-0.7-7.1-1.2-14.3-2-21.4
	c-0.4-3.7-0.5-7.5-3.5-10.5c-1.2-1.2-1.3-3.3-1.7-4.5c-3.3-1.7-6.3-3.3-9.5-5c-1.4,3.1-1.1,7-1.3,11.1c-0.5-0.6-1.4-1.2-1.4-1.8
	c-0.2-5.7-0.1-5.7-5.6-7.7c-0.9-0.3-1.6-0.9-2.7-1.6c0.3,1.7,0.6,3.2,0.9,4.8c-0.7-0.1-1.1-0.2-1.5-0.1c-5.3,1.6-9.1-1.6-13.1-4.1
	c-3.6-2.2-7.3-4.4-11-6.6c-0.2,0.3-0.4,0.5-0.6,0.8c1.3,1,2.7,2,4.5,3.4c-0.6,1.2-1.3,2.5-2.3,4.4c0.3,1.2,0.9,3.3,1.5,5.6
	c-4,3.1-5,8.4-7.8,12.7c0.3,0.2,0.5,0.4,0.8,0.6c2.2-2.7,4.4-5.5,6.6-8.2c1.6-1.9,3.4-3.2,6-2.7c0,0,0,0,0,0c1.2,1,2.4,2.2,3.7,3
	c6.6,3.9,13.3,7.7,19.8,11.7c2.2,1.4,4.4,3.2,5.6,5.4c3.7,6.5,6.8,13.3,10.1,20c0.5,1,0.9,2.2,0.9,3.3c0,0.8-0.7,2-1.3,2.3
	c-0.6,0.2-2-0.5-2.3-1.1c-1-2.2-1.8-4.6-2.6-6.9c-3.2,1.5-6.2,2.9-10.1,4.7c2.5,0.2,3.9,0.4,5.3,0.5l0.5,1c-2.4,1.8-4.8,3.7-7.2,5.5
	c3.8-1,5.7,1.5,7.4,4.2c-3,0-3.8,2.3-3.3,5.5c-15.8,2-31.1,0.6-46.7,1c0.2-1.7,0.6-2.8,0.4-3.8c-0.1-0.9-0.7-1.7-1.3-2.8
	c-2,2.1-3.8,4-5.5,5.9c-0.3-0.1-0.5-0.3-0.8-0.4c0.4-1.1,0.6-2.3,1.1-3.4c1.1-2.5,4.2-4.4,2.3-8c-0.4-0.8,1.1-2.6,1.8-3.9
	c0.9-1.7,1.8-3.4,3-5.6c-1.4,0.2-2.1,0.2-2.9,0.3c2.4-5.7,4.7-11.3,7-16.9c-0.2-0.2-0.3-0.4-0.5-0.5c-1.4,1.5-2.9,3-4.7,4.9
	c0.1-1.9,0.3-3.4,0.4-5.5c-2.4,2.1-4.4,3.8-6.3,5.5c1.5-2.9,2.4-5.6,1.5-8.9c-0.3-1,1.1-2.6,2.1-3.6c2.3-2.4,4.8-4.6,6.9-7.3
	c-3,1.4-5.9,2.9-8.9,4.3c-0.3-0.3-0.7-0.6-1-0.9c0.5-2.4,0.9-4.9,1.5-8.1c-2.8,2.9-3.1,8.2-8.6,6.4c1.7-2.1,3.3-3.9,5.4-6.5
	c-2.8,0.2-4.5,0.4-6.5,0.5c-0.4,3.3-1.4,5.8-5.3,6.4c-1.2,0.2-2.2,2.3-3.5,3.7c-3.4-0.9-7-1.8-11.2-2.9c1.1,6.6,3.4,12.6,4.6,18.8
	c1.1,6.1,0.2,12.5-0.4,19c-0.8-2.8-1.6-5.6-2.3-8.5c-1.6,1.9-3.3,3.8-5.1,6c2.9,6.6-2.9,10.2-5.6,15c-0.4,0.7-2.4,0.7-3.7,0.8
	c-4.5,0.1-9,0-13.3,0c-1.4-1.8-2.4-3.2-3.7-5c-2.1,3.7-5.1,4.5-8.8,4.4c-8.8-0.3-17.6-0.3-26.5-0.4c-5.3-0.1-6-0.9-6-6.1
	c0-5.3,0.7-10.1,7.9-10.9c-2.7-11.5-5.2-22.5-8-33.3c-2.9-10.9-1.4-22.1-2.9-33.9c4,2.6,7.6,3.7,11.5,1.5c2.3-1.3,3.8-2.4,2.8-5.4
	c-1-2.9-1.3-5.9,0.4-8.7c0.2-0.4,0.4-1,0.2-1.5c-2.4-7.9,1.5-15.4,1-23.2c-0.5-7.4-1.6-14.8-4.9-21.7c-1.5-3.2-2.1-6.9-3.1-10.4
	c-1.8-6.7-3-13.7-5.5-20.1c-1.8-4.5-5.3-8.1-10.8-9.3c-4.3-0.9-8.4-3-12.6-4.5c-2.4-0.9-3.4-2.7-3.9-5.3c-0.7-3.9-2.1-7.6-2.8-11.5
	c-0.4-2.2,0.1-4.6,0.4-6.8c0.5-3.7,1.4-7.5,1.8-11.2c0.1-1.2-0.3-2.8-1.2-3.7c-3.5-3.6-6.2-8.5-12.4-8c-0.8,0.1-1.7-0.2-2.4-0.5
	c-5.4-2.7-10-0.1-14.7,2c-1.1,0.5-2.3,1.7-2.7,2.8c-2.2,5.9-2.7,12.1-2.7,18.5c0.1,6,2.2,11.5,2.7,17.3c0.2,2.1,0.8,4.2,1.3,7
	c-2.2,0-4.4,0.3-6.4-0.1c-7.8-1.4-15.1-0.9-22.4,2.8c-2.3,1.2-5.5,0.9-8.2,1c-2.6,0-5.3-0.3-7.9-0.8c-4.1-0.6-8.2-1.2-12.2-2.3
	c-3.8-1-7.4-1.3-11.3-1.1c-11.9,0.6-23.9,0.7-35.7-1.8c-1.6-0.3-3.3-0.9-4.7-1.8c-7.3-4.9-15.6-3.3-23.6-3.7c-0.4,0-0.9,0.3-1.8,0.7
	c2.5,5.4,8.3,2,11.9,4.7c-0.5,0.9-1,1.8-1.5,2.7c-1.4,2.9-0.9,4.4,2.1,6c2.8,1.6,5.4,4.1,9.2,2.4c0.6-0.3,1.7,0.9,2.6,1.1
	c1.2,0.4,2.8,1.1,3.8,0.7c4.5-2.1,8.5-0.1,12.6,1c6.1,1.7,12.1,3.5,18.3,5c2.4,0.6,5,0.7,7.4,0.5c10-0.5,19.5,1.4,29,4.3
	c7.1,2.2,14.1,3.9,21.6,1.8c2.7-0.8,4.5,0.4,5.1,3.3c0.2,0.8,0.4,1.7,0.9,2.3c6.7,9.4,7,20.2,6.8,31c-0.1,4.2-1.6,8.3-2.3,12.5
	c-0.9,4.8-1.7,9.7-2.3,14.6c-0.5,4.1-0.6,8.2-0.8,12.3c-0.6,16.8-1.4,33.6-1.7,50.4c-0.1,7.7-1.1,15.1-2.4,22.6
	c-0.8,4.7,0.8,9.8,1.1,14.7c0.2,4.6,0,9.2,0,14.5c-3.7-0.5-7.4,0.1-10.6-1.6c-0.3,0.5-0.6,1.1-0.9,1.6c3.4-1,7.1,1.9,11,1.5
	c-0.7,1.8-0.9,3.1-1.6,3.7c-5.6,4.3-11.3,8.4-18.8,8.8c-1,0.1-1.9,0.1-2.9,0.2c-7.8,5.8-17.8,9.2-27.4,9.2c-7.6,0-14.6-2-21-5.4
	c-0.1,0-0.2,0-0.3,0c-0.1,2-0.2,3.7-0.3,5.2c0.6,0.6,0.8,0.9,1,1c5.8,1.8,5.9,1.8,5.9,7.8c0.1,7.3,0,14.6,0.1,22
	c0.1,5.5-0.1,5.7-5.8,6.1c-0.8,0.1-1.6,0.2-3.1,0.5c0.6,3.2,1.2,6.1,1.8,9c-0.4,0.1-0.8,0.2-1.2,0.3c-0.7-2.8-1.4-5.7-2.3-9.4
	c-4.7,2.1-9.2,4-13.4,5.8c-1.6,2.8,1,7-3.9,8.1c-3.3,0.7-5.8,0.3-7.8-2.1c-0.8,0.4-1.4,0.4-1.7,0.8c-2.9,3.4-5.9,5.5-9.9,1.3
	c-0.5-0.5-2.3-0.5-2.8,0c-2.7,3.1-5.9,1.5-9,0.7c2.2-0.4,4.3-0.9,6.6-1.3c-0.2-1.6-0.5-3.1-0.8-4.9c-1.1,1.3-2.1,2.5-3,3.6
	c-2.7-0.9-5.1-1.6-8.1-2.6c2.3-1.2,4.2-2.2,6.2-3.2c-2.5-5.5-7.3,1.3-10.2-2.7c2-3.7,5-6.7,8.2-9.4l0.1,0.1c0-0.7-0.4-1.7-0.1-2.2
	c2.1-2.8,4.1-5.7,6.6-8.1c1.6-1.6,4.2-1.8,6.5-0.9c1,0.4,2,1.2,3,1.8c3.2-2.5-1.1-4.8,0-7.1c-5.3-2-2.1-5.5-1.6-8.5
	c0.1-0.3,0.1-0.6,0.3-1.9c-1.6,0.4-3,0.9-4.4,1c-1.6,0.1-3.4-0.5-4.8,0c-1.3,0.5-2.2,2-3.7,3.5c1.7,0.1,2.7,0.2,3.9,0.3
	c-1,1.2-1.8,2.2-2.9,3.5c-1.1-0.4-1.9-2.6-4.2-0.9c-1.3,1-4,0.8-5.8,0.2c-5-1.5-8.7-0.2-11.9,3.8c-1.6,2.1-4.2,3.4-6.4,5.1
	c1.6,1.5,2.9,2.8,4.1,4c-3.5,1.8-6.4,3.4-9.4,5v-3.7c-2.1,0.7-4,1.4-6.2,2.2c-0.5-3.3-1.1-6.9-1.8-10.9c-3.8,10.7-2.3,12.1-15.6,7.2
	c2-0.5,4-1,6.6-1.6c0.2-1.1,0.5-2.5,0.8-3.8c-2.6-0.8-5.1-1.5-7.6-2.3l0-1.5c1.4-0.5,2.8-1.1,5-2c-3.9-1.3-7.2-2.4-10.6-3.5
	c1.5-2.8-1.8-2.8-2.7-4.4c-5.9,3.9-12.7,6.5-19.7,7.5c-0.1,0.4-0.1,0.8-0.2,1.3c-1.3-0.4-2.6-0.5-3.6-0.9c-0.7,0-1.4,0.1-2,0.1
	c-8.6,0-16.6-2.5-23.6-6.9v144.5h565v-130c-16.4,0.3-32.8,0.7-49.2,0.9c-2.2,0-5.2,0.9-6-3.5c2.1-0.2,3.9-0.4,5.8-0.4
	C599.5,608.5,615.9,608.6,632.4,608.6z M511.9,496.8c-3.1-1.1-6.2-2.1-9.3-3.2c-0.2-0.3-0.5-0.6-0.7-1c0.1-0.2,0.2-0.5,0.3-0.7
	l10.1,3.8C512.2,496.1,512.1,496.4,511.9,496.8z M117.3,608c-1.5-1.2-1.4-3.7-3.8-4.4c-0.9-0.3-1.2-2.4-1.9-3.7
	C116.9,598.8,119.1,602.3,117.3,608z M112.8,606.2c1.6,0.7,3,1.3,4.4,1.9c0,0,0,0,0,0c0.6,1.1,1.2,2.2,1.9,3.5
	C114.6,611.1,113,609.8,112.8,606.2z M187.6,645.1c5.1-3.2,5.9,4.8,10.2,2.3C195.3,649.3,194.1,649,187.6,645.1z M234.4,654.3
	c-1-4.7-1.9-9.5-2.9-14.2c0.3-0.1,0.7-0.2,1-0.3c1.9,4.4,1.8,9.4,3,14C235.1,654,234.8,654.1,234.4,654.3z M326.4,701.4
	c-9.9,0.5-19.8,0.9-29.8,1.3c-2.9,0.1-4.2-1-4.2-4.1c0-6.6-0.1-13.3-0.3-19.9c-0.1-2.6,0.9-4,3.7-4.1c10.8-0.5,21.5-1,33.4-1.6
	c0,8.6,0,16.6,0,24.5C329.2,699.5,328.8,701.3,326.4,701.4z M363.3,571.3c-5,1.3-5.8,0.4-9.1-10c-1.1,3-2,4.9-2.5,7
	c-0.6,2.8-2.3,4-4.9,5c-4.7,1.9-9.2,4.5-14.6,3.8c-0.8-0.1-1.6-0.1-2.6-0.2c-0.4-1.1-0.8-2.1-1.1-3c-2.9,0-5.7,0.1-8.4-0.1
	c-1-0.1-1.9-1-2.8-1.5c0.5-0.6,1.1-1.3,1.6-1.9c0.1-0.2,0.2-0.3,0.4-0.5c-3.8-1.8-1.4-4.7-0.9-6.9c1.5-6.1,3.5-12.1,5.1-18.2
	c0.9-3.4,2.8-4.9,6.2-5.3c4.5-0.5,4.5-0.7,4.7-5.3c0.1-2.8,0.3-5.7,0.1-8.5c-0.2-4.9-0.1-9.6,1.8-14.2c0.4-1.1,0.7-2.3,0.7-3.4
	c-0.3-6.3,3.6-10.8,6.5-16.8c3.1,6.6,5.7,12.2,8.3,17.8c0.4,0.9,0.7,1.9,0.7,2.9c-0.3,6.1,1.7,11.8,3.4,17.5
	c0.8,2.7,0.8,5.5,1.2,8.4c6.8,2.1,4.7,8.4,6.7,13.4c-2.5,0.5-4.4,0.9-6.7,1.4C359.1,558.8,361.2,565,363.3,571.3z M366.2,412.1
	c0.4-4.1,1.3-8.1,2.2-12.9c6.7,8.6,8,17.6,9,26.7c0.4,3.9,1.9,7.7,2.8,11.5c0.8,3.4,1.8,6.7,2.3,10.1c0.4,3-0.3,5.7-2.5,8.2
	c-1.9,2.1-2.8,5.1-4.7,8.8c-0.5-2.1-1.2-3.4-1-4.6c1-5.6-0.5-10.9-1.8-16.1c-1.9-7.5-4.5-14.9-6.3-22.4
	C365.5,418.6,365.9,415.2,366.2,412.1z M372.3,573c-1.4-4.6,3.7-4.5,4.5-7.4c0.3,0.1,0.6,0.1,0.9,0.2c0.2,2.3,0.4,4.6,0.6,7.2H372.3
	z M388.9,628.9c2.1-1.3,3.8-1.8,4.5-2.9c0.8-1.3,1.2-3.2,1-4.8c-0.2-1.2-1.4-2.3-2.8-4.3c-0.7,2.1-1.1,3-1.3,3.9
	c-0.3,0.9-0.4,1.9-0.7,3.2c-1.7-3.6-1.7-3.9-0.3-8.5c8.6,0.6,10.1,2.6,6.7,9.2c0.7,1.6,1.4,3.2,2.6,5.8
	C395,629.9,392.4,629.5,388.9,628.9z M499.2,624.6c-2.1-1.4-4.8-2.6-6.8-4.5c-6.2-6-7.3-7.8-7.9-11.4c1.8-2,1.3,2.7,3.1,1.1
	c0.8,1.1,1.7,2.1,2.3,3.2c0.8,1.4,1.4,3,2.1,4.5c3.9-2.4,4-2.9,1.9-8.5c2.8-1.4,14-1.2,22.6,0.5
	C510.4,614.7,505.2,619.4,499.2,624.6z M532.2,553c-0.2-1.3-0.3-2.7-0.5-4c0.7-0.1,1.3-0.3,2-0.4c0.4,1.3,0.7,2.7,1.1,4
	C534,552.7,533.1,552.9,532.2,553z M542.9,548.1c-1.1-2.9-1.7-4.8-2.8-7.6C544.4,542.2,544.8,544.1,542.9,548.1z M573.2,579.3
	c-1.5-4.3,1.6-5.7,3.6-7.6C575.7,574,574.6,576.3,573.2,579.3z M622.8,696.5c2.4-0.2,4.2,0.5,4.3,4.1c-2.1,0-3.7,0-5.3,0
	c-0.6,0-1.2-0.3-1.9-0.5C619.5,697.5,620.9,696.7,622.8,696.5z M581.3,614.6c3.5-1.1,5.5-0.6,6.5,1.9c0.9,2.3,1.6,4.7,2.6,7.6h-10.5
	C580.3,620.7,580.8,617.7,581.3,614.6z"/>
<path class="st2" d="M328,605.7c-1.7,0.8-3.3,1.3-4.6,2.3c-2.1,1.5-3.2,0.9-4.3-1.1c-1.1-2.1-0.7-3.4,1.5-4.3
	C324.9,600.8,326.6,601.5,328,605.7z"/>
<path class="st2" d="M314.3,614.4c1.8,2.8,3.5,5.6,5.3,8.5c-0.3,0.2-0.5,0.5-0.8,0.7c-1.3-0.8-2.6-1.6-4.1-2.6
	c-0.8,0.5-1.8,1-2.9,1.7C310.3,618.9,312.6,616.6,314.3,614.4z"/>
<path class="st2" d="M308.8,607.5c1,2.1,1.7,3.6,2.5,5.3c-3.5-0.6-7.3-1.3-11.8-2.1C302.8,609,305.1,606.2,308.8,607.5z"/>
<path class="st2" d="M368.1,641.9c-1.9,1.4-3.5,2.5-5.5,4c-1-1.1-2.2-2.4-3.7-4C362.6,640.4,365.5,640.5,368.1,641.9z"/>
<path class="st2" d="M328.8,603.6c0.3-2.7,0.5-4.4,0.7-6.6c2,0.9,3.5,1.5,6.1,2.6C333.2,601.1,331.5,602,328.8,603.6z"/>
<path class="st2" d="M320,616.3c1.3,2.1,2.6,4.1,3.7,6.3c0.1,0.3-0.8,1.1-1.6,2.2c-1.1-3-2-5.4-2.9-7.8
	C319.5,616.8,319.8,616.5,320,616.3z"/>
<path class="st2" d="M350,638.6c1-1.1,2-2.2,2.9-3.2c1.6,0.7,2.9,1.3,4.1,1.8c0,0.3,0,0.7-0.1,1c-2.4,0.1-4.7,0.2-7.1,0.3
	C349.9,638.5,350,638.6,350,638.6z"/>
<g>
	<path class="st0" d="M628.3,580.3c5.7-0.4,11.5-0.9,17.2-1c2.1,0,4.1,0.9,6.2,1.3c0.9,0.2,1.8,0.2,3.2,0.3
		c-2.2-9.3-11.8-12-15.5-19.3c2.8-2.9,27.4-5,33.3-2.5c1.2-4.2,2.3-8.3,3.5-12.4c0.1,0.1,0.3,0.1,0.4,0.2c-0.2,4.3-0.7,8.5-0.6,12.8
		c0,1.5,1.1,3.4,2.4,4.3c7.3,5.2,11.4,4.4,16.9-3.1c0.5-0.6,1-1.2,2.1-1.9c-3.3,14.2,6.1,20.4,15.3,27.3c3.7-7.6,2.2-12.8-3.9-16.7
		c-1.7-1.1-3.1-3.9-3.1-5.9c-0.2-7.3,0.5-14.7,0.4-22c-0.1-4.9,1.1-8.4,6.4-9.7c1.7-0.4,3.4-1.3,5.8-2.3c0.3,2.4,0.8,4.2,0.8,6.1
		c0.1,11,0,22,0,33c0,1.3,0,2.7,0.1,4c0.9,9.2,1.9,9.9,10.7,8.2c5.1-1,10.1-2.2,15.2-2.8c3.1-0.3,6.3,0.6,9.4,0.7
		c2.3,0.1,4.7,0.1,6.9-0.4c35.3-7.5,70.6-15.1,105.9-22.7c2.6-0.6,5.4-0.7,7.8-1.7c1.8-0.8,4.4-2.6,4.5-4c0.2-2.8,2.1-6.8-2.6-8.5
		c-1-0.4-1.5-2.3-2.4-3.7c4.1-1,7.6-1.6,10.8-2.8c0.8-0.3,1.3-2.5,1.3-3.9c0.2-9,0.2-18,0.4-27c0.2-5.8,0.7-11.6,1.2-17.3
		c0.1-0.8,0.7-1.9,1.4-2.4c5.6-3.4,14.4-1.4,18.5,4.4c-4.2,2.3-4.8,5.6-3,9.9c0.7,1.7,0.5,3.9,0.5,5.9c-0.2,10.8-0.5,21.7-0.7,32.5
		c-0.1,6,2.5,8,8.5,6.9c5.8-1.1,11.5-2.2,17.3-3.4c2.4-0.5,4.7-1.9,6.5,1.3c0.4,0.6,2.5,0.4,3.7,0.2c3.8-0.6,7.5-1.5,11.5-2.3
		c0.4,1.6,0.8,2.9,1.2,4.7c1.6-3.3,2.9-6.2,4.9-10.5c0.8,3.6,1.3,5.9,1.9,8.1c-0.9-5.9,4.5-4.6,7.6-6.1c-0.4-1.5-0.7-2.9-1.1-4.2
		c0.3-0.3,0.6-0.6,0.9-0.8c1.3,1,2.6,1.9,3.9,2.9c2.1-4.5,1.3-5.9-3.5-5.5c-9.5,0.7-19.1,1.6-28.6,2.1c-1.1,0.1-3.3-1.5-3.2-1.8
		c0.4-1.5,1.1-3.8,2.3-4.2c3.1-1.2,6.5-2.2,9.7-2.1c8.3,0.2,16.7,0.9,24.9,1.8c0.8,0.1,2,2.4,2,3.7c0.2,5.4,0.1,10.8,0.1,16.3
		c0.5,0.3,1,0.6,1.4,0.9c2.7-2.6,5.4-5.3,8-7.9c1.9,4.4,4.1,9.3,6,14.4c0.5,1.4-0.3,3.2-0.4,4.8c-0.9-1.1-1.8-2.2-2.8-3.2
		c-1.5-1.5-3.4-4.4-4.7-4.2c-2.7,0.4-5.2,2.3-7.5,4.1c-1,0.8-1.3,2.6-1.9,4c-0.6,1.6-1,3.3-1.5,4.9c1.9,0.4,3.9,1.4,5.5,1
		c14.6-3.3,29.2-6.8,43.8-10.3c0.5-0.1,1-0.2,1.4-0.5c9.7-8.3,22.4-7.4,33.6-11.1c1.9-0.6,3.9-1.1,5.7-1.9c5.4-2.4,7.5-6.7,5.1-12
		c-0.6-1.4-3.3-2-5.2-2.8c-0.7-0.3-1.6-0.1-2.5,0c-4.3,0.4-8.5,0.9-12.8,1.4c0,0.4,0,0.9,0,1.3c3.5-0.2,7-0.4,10.5-0.5
		c0,0.4,0.1,0.7,0.1,1.1c-14.2,3.1-28.5,6.3-42.1,9.3c0-2.9,0.4-5.2-0.1-7.4c-1.1-4.7,1.3-7.2,5.3-8c6.8-1.3,13.7-2.4,20.7-3
		c7.5-0.7,8.4-1.2,8.6-8.5c0.2-10.3,0.2-20.7,0.2-31c0-1.8,0-3.5,0-5.3c0.5,0,1,0,1.5,0c-0.2,1.7-0.6,3.4-0.6,5.2
		c0,9.5-0.2,19,0.1,28.5c0.1,2.5,0.8,6.4,2.4,7.2c3.1,1.6,7.2,2.2,10.7,1.7c6.7-1.1,13.2-3.5,19.8-4.9c4.8-1.1,9.8-1.7,14.7-2.3
		c3.5-0.4,5.3-1.8,4.9-5.4c-0.5-4-3.3-3.4-6-3.1c-4.1,0.4-8.2,0.6-12.3,0.8c-0.1-0.6-0.2-1.3-0.3-1.9c1.7-0.7,3.4-1.8,5.2-2.2
		c5.7-1.1,11.5-1.7,17.1-2.9c1.3-0.3,2.8-2.5,2.9-3.9c0.3-4.8-0.2-9.7,0-14.5c0.2-5.6,0.6-11.2,1.3-16.8c0.1-1.1,2-2.6,3.2-2.8
		c4.4-0.6,9-1.1,13.4-1c2.1,0.1,4.2,1.9,6.2,2.9c-0.2,0.5-0.4,1-0.7,1.6c-1.6-0.1-3.1-0.2-5-0.4c-0.2,1.3-0.6,2.6-0.5,3.9
		c0.6,9.5,1.6,19.1,1.7,28.6c0,6.8,3.6,7.9,9.1,6.3c2-0.6,3-4.6,4.1-6.5c0.5,1,0.9,4,2.5,4.9c1.9,1,4.9,0.6,7.3,0.2
		c5.8-0.9,11.6-2.1,17.4-3.1c-2-6.5-7-4-10.6-4.9c-1.6-0.4-3.2-1-4.8-1.6c1.5-1,2.8-2.5,4.4-2.9c5.9-1.4,11.9-2.8,17.9-3.4
		c3.5-0.4,4.5-1.6,4.5-4.9c0.1-8.3,0.5-16.6,1.1-24.8c0.1-1.2,1.9-3.1,3.1-3.3c4.8-0.8,9.6-1.2,14.4-1.3c1.6,0,3.2,1.5,4.8,3.2
		c-6.7,0.7-5.9,3.3-4.7,8.2c1.5,6,0.5,12.6,0.5,18.9c0,8.2,2.3,9.7,10.3,6.8c2.3-0.9,5.1-0.6,6.9-0.8c-0.2-9.4-0.6-18.2-0.5-27.1
		c0-1.1,1.9-2.7,3.3-3.3c2-0.9,4.4-1.5,6.5-1.4c1.2,0.1,3.1,1.7,3.3,2.9c0.5,4.3,0.5,8.6,0.4,13c0,2.4,0.4,4.4,3.1,3.6
		c1.3-0.4,3-2.4,3.2-3.7c0.7-7.6,0.9-15.2,1.3-22.8c0.1-0.9,0.5-2.4,1-2.6c6.2-1.5,12.4-2.5,19.1-0.4c-5,2-4.6,4.6-3.4,9
		c1.4,5.5,0.4,11.6,0.6,17.4c0.1,5.5,2.1,7,7.6,5.9c1.3-0.3,2.8-0.1,3.8-0.8c1.3-0.9,2.8-2.4,2.9-3.8c0.3-3.6,0-7.3-0.1-11
		c-0.1-2.5,0.1-4.9,3.3-4.9c1,0,2.7,1.1,2.8,1.9c0.4,2.3,1.1,5.2-2.8,5.7c-0.4,0-0.8,0.4-1.2,0.7c0,0.5,0,1,0,1.5
		c3-0.2,6.1,0.1,8.9-0.7c0.9-0.3,1.2-3.4,1.3-5.3c0.4-5.9,0.6-11.9,1-17.8c0.1-0.9,0.3-2.1,0.9-2.7c1.6-1.6,15.6-1.8,18.7-0.1
		c-5.1,1.2-4.6,3.7-3.5,7.9c1.3,5,0.7,10.6,0.6,15.9c-0.1,3.7,1.4,5.8,4.9,4.9c2.9-0.7,8.2,1.4,7.7-4.9c-0.3-2.8,0.7-4.2,3.8-4.5
		c1.2-0.1,2.9-2.3,3-3.6c0.5-5.6,0.5-11.3,0.8-16.9c0.1-1.1,0.5-2.4,1.2-3.1c1.9-1.8,14.4-1.7,17.6,0.2c-4.8,1-4.8,3.2-3.5,7.3
		c1.2,3.8,0.4,8.2,0.5,12.4c0.1,6.1,1.2,7,7.2,5.7c1.1-0.2,2.2-0.6,2.5-1.1c7.3-7,3.8-15.9,5-23.9c0.5-3.3,1.9-5,5.4-5.1
		c4.1-0.1,8.1-0.5,12.7-0.2c-5.2,2.1-3.3,5.5-2.8,8.9c0.5,3.8,0.3,7.7,0.2,11.5c-0.1,3.3,1.6,4.3,4.7,4.3c3.1,0,4.1-1.4,4-4.3
		c-0.2-7-0.1-14-0.3-21c-0.1-3.3-1-5.4-4.9-6.2c-2-0.4-3.2-4-5-5.9c-1.6-1.6-3.6-4-5.4-4c-5-0.1-10.1,1-15.1,1.5
		c-2.6,0.3-5.3,0.9-7.8,0.4c-4.1-0.9-4.8,1.1-4.9,4.2c-0.1,2.5,0,4.9,0,7.8c-3.6,0.5-6.9,0.9-10.3,1.4c-0.1-0.3-0.1-0.5-0.2-0.8
		c2.8-1.3,5.5-2.7,8.4-4c-1.7-5.7-4.7-8.8-11.2-7.6c0.9-1,1.3-1.4,1.7-1.8c-0.6-2.4-6.4,1-4.6-4.2c-6.8-1.7-6.8-1.7-9.2,8.6
		c-6.3-0.2-12.4-1-18.4-0.5c-3.8,0.3-7.3,2.6-11.1,3.7c-1.1,0.3-3.4-0.2-3.8-1c-1.6-3.1-3.2-3.1-5.2-0.7c-1.8,2.2-3,2.3-5.7,0.5
		c-2.5-1.7-6.4-1.4-9.7-1.6c-0.6,0-1.6,2.2-1.8,3.5c-0.3,2.2-0.1,4.5-0.1,6.7c-7.3-0.7-3.9-12.7-12.9-10.6c-4-5.2-9.3-6.2-15.3-4.8
		c0,3.3,0.2,6.4-0.1,9.5c-0.1,1.2-1.1,3.3-1.9,3.4c-2.8,0.2-5.6-0.2-8.3-0.7c-0.2,0,0.1-2.4,0.1-3.8c0-0.7,0-1.5-0.3-2.2
		c-0.6-1.6-1.3-3.2-2.2-5.4c-10.1-1.1-21.1-2.4-32.1-3.4c-2.7-0.2-6.1-0.2-8.3,1.2c-7.7,4.7-16,3.7-24.3,3.6c-3.3,0-6.7,0-10,0
		c0,0.7,0,1.4,0,2.1c5.5,0,11,0,17.3,0c-1.7,4.2-3,7.4-4.8,11.7c-0.5-2.5-0.8-3.9-1.1-5.4c-4.8-1.3-7.3,0.7-7.5,7
		c-1.3-2.3-1.9-3.3-2.7-4.7c-0.9,1-1.7,1.9-2.7,3c-0.5-0.9-1-1.8-1.9-3.4c0,2,0,3.3,0,5.3c-1.2-1.1-2-1.8-2.9-2.6
		c-0.7,0.8-1.4,1.6-2.4,2.7c-0.7-1.8-1.1-3.2-1.7-4.9c1.9-1.3,3.8-2.5,5.7-3.7c-0.1-0.4-0.2-0.9-0.3-1.3c-3.9,0.3-7.7,0.7-12.3,1.1
		c0.1,0.7,0.2,2.8,0.7,2.9c3.4,0.8,2.8,3.2,2.8,5.5c0,4.7,0,9.3-0.1,14c0,1.1-0.5,2.2-1,3.1c-0.1,0.2-1.7,0.1-1.7-0.1
		c-0.3-1.2-0.4-2.4-0.4-3.7c0-3.5,0-6.9,0-10.4c-0.4,0-0.8,0-1.3,0c-0.2,0.9-0.5,1.8-0.7,2.7c-0.7-10.3-5.7-16-17.4-15.2
		c10.5-4.6,20.8-3,30.5-4c-1.8-2.1-3.6-4.2-5.5-6.4c-0.3,5.2-4,5-8.2,3.9c-7.1-1.8-14.5-5.5-21.4-4.8c-5.5,0.6-8.9-2.1-13.2-3.1
		c-1-0.2-2.5-1.3-2.5-1.9c0-1.1,0.8-2.9,1.6-3.2c3.3-1.3,6.8-2.1,9.4-2.8c1.8-2.9,3.3-5.6,5.2-8c0.2-0.3,2.5,0.6,3.5,1.4
		c1.4,1.1,2.4,2.5,3.6,3.8c1.2-1.5,2.9-2.8,3.5-4.5c1.4-3.9,3.1-6.6,7.9-5.3c1,0.3,2.7,0.4,3.3-0.2c3.7-4,8.7-1.4,12.8-2.8
		c7.4-2.5,13.1,1.7,19.4,3.8c1.9,0.6,4.4-0.7,7.4-1.3c0.2,0.4,0.9,2,1.7,3.5c0.5,0.1,0.9,0.1,1.4,0.2c0.4-2,0.8-4.1,1.3-6.5
		c0.9,0.7,2.1,1.5,3.5,2.5c1-0.6,2.2-1.3,3.8-2.2c0.4,1.4,0.9,2.5,1,3.5c0.3,3.7,3.2,4.9,4.9,2.7c5-6.2,12.5-5.2,19.3-7.4
		c-0.7-1.4-1.2-2.4-1.8-3.7c2.8-0.6,5.2-1.5,7.6-1.7c1.4-0.1,2.9,0.8,4.3,1.3c-1,0.9-1.9,1.9-3,2.7c-0.6,0.5-1.4,0.7-1.9,1
		c3.3,5.6,8,7.7,14.7,6.2c0-0.1,0.9-0.9,0.7-1.5c-2-5.6,2-6.2,5.7-8.6c8.8-5.9,18.8-2.9,27.9-5.5c4.8-1.4,13.1,2.2,15.4,4.9
		c4.8-1.1,9.2-1.8,13.4-3.2c1.5-0.5,2.5-2.7,2.8-3.1c5.3,0.8,9.8,1.3,14.3,2c1.3,0.2,3.1,0.4,3.6,1.2c2.4,3.8,5,2.3,6.7-0.1
		c0.9-1.2-0.2-3.8-0.4-5.8c-0.6-0.4-1.2-0.7-1.8-1.1c4.2-1.1,8.3-2.3,12.5-3.4c0.3,2,0.7,4.1,1.1,6.5c3.9,1.1,9.9-2.2,13.4-7.6
		c1-1.5,3.2-3.4,4.7-3.2c11.3,1.4,22.9,1.5,32.8,8.9c3.2,2.4,8.7,1.6,12.7,3.3c5.6,2.3,10.6,0.2,15.9-0.5c1.7-0.3,4.5-0.9,5.2,0
		c5.3,6.1,11.1,1.1,16.6,0.9c1.7,0,3.3-3.5,5.7-6.4c1.9-0.1,5.6,0.2,8.8-0.7c3.3-0.9,6.1-3.4,9.4-4.6c2.9-1.1,6.3-2.4,9.1-1.9
		c4.6,0.8,8.7,2.1,12.5-1.8c0.5-0.5,1.7-0.1,2.6-0.1c2.7,0,5.5-0.1,8.2-0.1c2.9,0,5.3-0.6,5.1-4.3c0-0.2,0.4-0.5,0.7-0.7
		c6.1-2.4,12-5.5,18.3-7c3.2-0.7,7.1,1.4,10.7,2.3c0,35,0,70,0,105c-1.6-0.1-3.4-0.5-4.9-0.1c-1.2,0.4-2.9,1.9-2.9,2.9
		c0,1.4,1.2,3.3,2.4,3.9c1.5,0.7,3.5,0.2,5.3,0.2c0,8.7,0,17.3,0,26c-20-0.7-39.9-1.4-59.9-2.1c5.7,1.6,11.5,2.1,17.2,2.5
		c14.2,0.9,28.5,1.8,42.7,2.7c0,3.7,0,7.3,0,11c-25.4-1-50.9-2.4-76.3-2.7c-17.4-0.2-34.9,0.9-52.2,2.1c-4.4,0.3-8.8,2.5-12.7,4.8
		c-5.8,3.4-11,7.9-16.8,11.2c-5.7,3.3-11.6,6-12.2,13.5c-8.8-1-10.1,0.3-9.9,8.8c0,1.7,0.5,3.4,0.3,5c-0.3,2.9-1,5.7-1.6,8.6
		c-0.7,0.1-1.5,0.2-2.2,0.3c-1.4-2-3.6-3.8-4-6c-1.7-8.9-1.4-8.6-10.1-5.7c-5.1,1.7-7.4,4.5-7.5,9.7c0,2-1,4-1.5,5.9
		c-0.6-0.1-1.3-0.3-1.9-0.4c0.2-1.9,0.9-3.9,0.3-5.5c-0.7-2-2.2-4.5-4-5.1c-2.7-0.9-4.2,1.1-3.9,4.1c0.2,2.2,0.5,4.4,0.1,6.5
		c-0.4,2.1-1.5,4.1-2.3,6.2c-2.3-1.4-4.7-2.7-6.9-4.2c-0.5-0.4-0.6-1.5-0.8-2.3c-1.6-6.1-2.6-6.6-8.3-4.1c-0.5,2.7-1,5.1-1.2,6.4
		c-3,0.4-5.2,0.5-7.3,1c-5.1,1.3-10.2,3-15.3,4.2c-3.3,0.8-5.4,2.1-5.9,5.7c-0.7,4.4-1.8,8.7-2.8,13.1c-1.3-4.7-2.4-9-3.8-13.2
		c-1.4-4.1-4.8-4.8-7.6-1.7c-5.6,6.1-13,9.1-20.6,11.3c-5.2,1.5-8.6,4.9-8.5,9c-2.6,0.9-5,1.8-6.5,2.4c-4.2-1.5-8.1-4.1-11.8-3.8
		c-7.4,0.5-14.6,3-21.9,3.8c-13.7,1.4-25.6,12.5-27.5,26.1c-0.4,3-2,5.9-3.6,8.5c-1.2,2-3.1,3.5-4.8,5.3c-3.1-2.9-7.4-5.8-10.3-9.7
		c-4.5-6-10-6.5-16.6-5.2c-8.3,1.6-16.7,2.9-25.1,3.7c-8.3,0.8-14.8,5.4-17.4,13.2c-0.5,1.4-1,3.2-2,3.9c-4.3,2.7-4.6,5.4,0,8.9
		c-2.4-0.4-3.9-1.2-5.5-1.9c-4.4-2-8.7-4.2-13.2-5.7c-1.4-0.5-3.5,0.9-5.2,1.4c0.9,1.5,1.4,3.7,2.7,4.5c7.4,4.3,15.7,5.1,24.1,4.6
		c1.7-0.1,3.5,0.3,5.2,0.8c4.4,1.4,8.7,3,13.1,4.4c0.7,0.2,1.6-0.2,2.4-0.5c5.9-2.3,10.8-0.8,14.9,4.7c-4.2,2.7-8.1,5.7-13.6,5.2
		c-1.4-0.1-3.9,1-4.4,2.2c-1.4,3.6-4,3-6.9,3.3c-6.5,0.7-13,2-19.5,3c0.1,0.8,0.2,1.7,0.3,2.5c5.2-0.5,10.4-1,15.7-1.5
		c2.2,5.8-1.8,17.1-7.4,18.4c-5.6,1.2-11.6,2.7-17.2,1.9c-12.6-1.6-25.1-4.8-37.7-6.7c-8.1-1.2-16.3-1.6-24.5-1.7
		c-3.6-0.1-4.5-1-4-4.3c0.6-4.1,0.9-8.2,1.4-12.7c-2.5-0.3-4.6-0.7-6.7-0.7c-5.9,0-11.9,0.2-17.8,0.4c-3.8,0.2-7.7,0.4-11.4,1
		c-1.7,0.3-4.1,1.1-4.6,2.3c-1.8,4.9-3.5,9.9-4.3,15.1c-0.4,2.5-0.4,4.1-3.1,4.6c-2.7,0.6-3.3,2.1-2.4,4.8c0.5,1.6,0,3.5-0.1,5.2
		c-1.6-0.8-3.7-1.3-4.8-2.5c-3-3.3-5.7-2.3-8.1,0.2c-2.2,2.2-5.5,4.7-1.2,8.2c2.9,2.3,2.9,4.6-0.4,6.8c-0.8,0.5-1.2,1.6-1.8,2.4
		c-7.7,0-15.3,0-23,0c-0.5-2-1-4.1-1.5-6.1c-0.3-1.1-0.8-2.1-0.8-3.1c0.4-4.8-2.1-5.6-6.2-5.1c-2.7,0.4-5.8,0.8-8.2,0
		c-4.2-1.4-7.5-0.2-10.6,2.2c-0.8,0.6-1.3,3.2-0.7,3.8c2.8,3,5.9,5.6,9,8.3c-67.7,0-135.3,0-203,0c-0.7-4.7-2.7-8.7-7.2-11
		c2.1,3.7,4.2,7.3,6.2,11c-10.7,0-21.3,0-32,0c0-25,0-50,0-75c2.6,3.3,5.2,6.6,8,10.2c-1.3-4.5-2.5-8.6-3.8-13.2c-0.6,0-2.4,0-4.1,0
		c0-1,0-2,0-3c2.8-0.4,5.7-0.8,9.4-1.3c-3.5-5.4-6.4-10.1-9.4-14.7C628.3,602.3,628.3,591.3,628.3,580.3z M772.1,589.2L772.1,589.2
		c-5.9,1.7-7.6,5.8-6.8,11.4c0.1,0.8,0,1.7,0,2.5c-0.2,3.5,1.6,4.9,4.9,4.4c8.6-1.2,17.3-1.8,25.7-3.7c24.2-5.5,48.3-11.5,72.3-17.5
		c16.5-4.1,32.8-8.8,49.2-13c7.1-1.8,4.6-7.3,5-11.8c0.5-4.9-3.6-4.3-6.2-5.5c-1-0.4-2.3-0.2-3.4,0c-8.3,1.3-16.7,2.5-24.9,4.1
		c-10.9,2.1-21.7,4.5-32.5,6.8c-14.7,3.1-29.6,5.8-44.2,9.6c-10.9,2.8-22.3,2.4-32.8,7.2c-5.6,2.5-11.7,3.9-17.5,5.9
		c-3.9,1.4-3.6,3.6-0.3,7.3c0.4-8,5.9-7,10.4-7.6C771.4,589.2,771.8,589.2,772.1,589.2z M796.7,652.6c2.3,4.6,16.6,16,19.6,16.2
		c1,0.1,2.2-0.5,3.2-0.9c3.7-1.6,7.3-3.4,11.1-4.8c2.9-1.1,6.2-1.2,9.1-2.4c9.1-3.6,16.5-10.9,26.7-12.1c0.5-0.1,0.8-1.1,1.3-1.4
		c0.8-0.5,1.8-1.2,2.7-1.2c6,0.4,14.2-8.8,12.4-14.4c-0.4-1.4-2.8-2.6-4.4-2.9c-0.7-0.1-2,2.3-2.6,3.7c-0.4,1-0.1,2.3-0.1,4.7
		c-2.2-1.5-3.5-2.1-4.4-3.1c-5.3-5.7-8.1-5.6-13.8-0.2c-2.2,2.1-5,3.6-7.8,4.8c-3.8,1.5-7.9,2.4-11.9,3.5c-5.2,1.5-10.3,3-15.6,4.3
		C813.9,648.6,805.6,650.5,796.7,652.6z M1078.2,520c0.5,3.2,1.2,5.7,1.1,8.2c0,4.3,1.4,6.2,6,5.2c15.6-3.5,31.1-6.9,46.7-10.4
		c5.7-1.3,11.3-2.7,16.8-4.5c3.7-1.2,5.7-8,3.2-10.8c-1.1-1.2-4.1-1.3-6-1c-1.6,0.2-2.8,2.4-4.4,2.8c-6.1,1.6-12.3,2.8-18.5,4.1
		c-8.4,1.8-16.8,3.6-25.4,5.4c-0.1-1.3-0.2-2.1-0.3-3.8c-4,1.5-7.5,2.8-11.3,4.2C1083.6,515.5,1080.9,520.1,1078.2,520z
		 M1159.6,502.5c-0.2,0.8-0.6,2-0.8,3.3c-0.9,8.2,0.3,10,8.3,8.4c14.8-3,29.4-6.8,44.1-10.3c0.9-0.2,2.3-0.7,2.5-1.4
		c0.7-2.4,1.2-5,1.3-7.5c0-0.6-1.8-2-2.2-1.8c-7.2,2.9-14.9,2-22.3,2.5c-0.1,0-0.2,0.5-0.3,0.8c1.3,0.1,2.5,0.1,3.8,0.2
		C1182.7,498.7,1171.9,504,1159.6,502.5z M968.7,598.1c2,2.2,4.1,3.8,3.8,4.5c-1.6,4.4,1.9,4.6,4.3,5.6c6.9,3.1,14,0.3,21.1,0.6
		c6.5,0.2,10.1-3.8,12.7-8.7c0.9-1.7,0.4-5-0.7-6.8c-0.8-1.2-3.8-1.9-5.5-1.6c-5.3,1-10.8,2-15.7,4.2
		C982.5,598.6,976.5,600.2,968.7,598.1z M1219.7,488.8c1.8,1.9,4,3.2,4.3,4.8c0.9,5,4.1,5.2,7.8,4.5c9.1-1.8,18.2-3.8,27.2-5.9
		c5.2-1.2,6.1-3.3,4.6-9.4c-3.3,0.6-6.6,1.5-10,1.8c-5.1,0.5-9.9,4.8-15.6,1.2c-1.1-0.7-3.6,0.5-5.9,0.9c1.2,0.9,1.7,1.3,2.9,2.2
		C1229.2,488.8,1224.3,488.8,1219.7,488.8z M1274.7,487.7c9.1-2.2,17.5-4.3,25.9-6.2c3.3-0.8,5.1-2.9,3.3-5.6
		c-1.1-1.6-4.5-2.8-6.6-2.4c-3.9,0.6-7.5,2.6-11.3,3.8c-3.9,1.3-8,2.2-11.9,3.7c-1.4,0.5-2.2,2.4-3.3,3.7
		C1272.3,485.8,1273.6,486.8,1274.7,487.7z M780.2,639.4c2.2,0.8,2.6,1,2.8,1c18.6-5.1,37.1-10.3,55.6-15.5c1.1-0.3,2.3-0.8,3.1-1.6
		c0.6-0.5,0.9-1.7,0.7-2.5c-0.1-0.4-1.3-1-2-1c-1.1,0-2.3,0.5-3.4,0.8c-16.6,4.7-33.2,9.4-49.8,14.3
		C785.1,635.6,783.2,637.5,780.2,639.4z M1079.9,575.5c0.2,0.6,0.4,1.3,0.5,1.9c6.2-0.5,12.4-1.1,18.6-1.5c5.8-0.4,9.6-6.8,6.7-11.9
		c-0.5-0.9-2.1-2.1-2.6-1.9c-4.6,2-9.2,4.1-13.6,6.5c-2.1,1.1-3.7,3.1-5.6,4.5C1082.7,574.1,1081.2,574.7,1079.9,575.5z
		 M1340.2,463.6c2.4,2.9,4.2,6.5,5.5,6.3c6.7-0.8,13.2-2.5,19.8-4.1c0.8-0.2,1.3-2.5,1.4-3.8c0-0.6-1.6-1.8-2.4-1.7
		C1356.8,461.2,1349.3,462.3,1340.2,463.6z M1373.4,465c5.6-1.5,10.9-2.8,16.1-4.5c0.9-0.3,1.5-2.4,1.5-3.7c0-0.6-1.4-1.8-2.3-1.9
		c-3.6-0.4-7.3-1-10.9-0.5c-2.4,0.3-4.9,2.1-6.6,3.8c-1,1-0.7,3.4-0.4,5.1C1370.9,464,1372.5,464.4,1373.4,465z M1339.8,468.4
		c-0.4-0.3-0.9-0.5-1.3-0.8c-8.2,1.9-16.4,3.7-24.5,5.7c-1.3,0.3-2.2,1.8-3.3,2.8c1.4,0.6,2.9,1.8,4.2,1.6
		c7.3-1.4,14.6-3.1,21.8-5.1C1337.9,472.3,1338.7,469.9,1339.8,468.4z M900.5,486.9c-3.1,5.5-2.8,39.1,0.3,43.1
		C901.3,515.1,902,501,900.5,486.9z M936.5,560.8c8.9,0.6,16.2-3.3,18.8-10.5c-5.3,1.3-10.2,2.6-15.2,3.7
		C935.8,554.9,935.4,557.3,936.5,560.8z M1119.5,461.2c-0.5,0-1,0-1.5,0c0,10.2,0,20.3,0,30.5c0.5,0,1,0,1.5,0
		C1119.5,481.5,1119.5,471.3,1119.5,461.2z M669.7,679.8c2,1.9,4.2,3.5,5.8,5.5c5.1,6.8,10,13.8,15,20.7c0.6-1.7,0.7-3.2,0-4.1
		c-5.4-7.4-10.9-14.8-16.7-22C673.1,679.1,670.5,679.8,669.7,679.8z M1089.1,562.9c-0.2-0.4-0.6-1.9-1.4-2.6c-0.6-0.5-2.2-0.2-3,0.4
		c-2.1,1.5-4.2,3.1-6,5c-0.5,0.5-0.3,2.6,0.2,3C1081.8,570.7,1088.9,567.1,1089.1,562.9z M1126.8,457.6c-0.4,0-0.8,0-1.1,0
		c0,10.5,0,21,0,31.5c0.4,0,0.8,0,1.1,0C1126.8,478.6,1126.8,468.1,1126.8,457.6z M943.9,575c0.1,0.7,0.2,1.4,0.3,2.1
		c3,0.3,6.1,0.8,9.1,0.6c0.9,0,1.6-2,2.4-3.1c-1.1-0.7-2.2-2.1-3.2-2C949.6,573.2,946.8,574.2,943.9,575z M981.3,667.7
		c-1.7,2.6-3.3,3.9-3.1,5.1c0.2,1.4,1.8,2.6,2.9,3.9c1.4-1.1,3.7-2.1,4-3.5C985.3,672.1,983.2,670.4,981.3,667.7z M957.5,606.6
		c0.5,0.6,0.9,1.1,1.4,1.7c3.4-0.2,6.8-0.5,10.8-0.8c-2.2-4.9-3.9-8.8-5.9-13.2C960.6,598.8,973,608,957.5,606.6z M1187.7,477
		c0.3,0,0.6,0,1,0c0-8.1,0-16.1,0-24.2c-0.3,0-0.6,0-1,0C1187.7,460.9,1187.7,469,1187.7,477z M1308.4,374.7
		c4.9,4.7,10,3.4,11.8-2.6C1316.2,372.9,1312.7,373.7,1308.4,374.7z M1437.3,451.9c-0.5-0.2-0.9-0.5-1.4-0.7c-1.5,2.3-3.2,4.5-4.3,7
		c-0.3,0.8,1.1,2.3,1.8,3.5c0.9-0.8,2.4-1.3,2.7-2.3C1436.8,456.9,1436.9,454.4,1437.3,451.9z M1242.9,467.1c0.3,0,0.5-0.1,0.8-0.1
		c0-6.4,0-12.8,0-19.2c-0.3,0-0.5,0-0.8,0C1242.9,454.2,1242.9,460.7,1242.9,467.1z M1219.4,384.1c0.2,0.4,0.5,0.9,0.7,1.3
		c2-0.5,4.1-0.8,6-1.6c0.8-0.4,1.1-2,1.7-3c-1.2-0.2-2.6-0.9-3.5-0.5C1222.4,381.2,1221,382.7,1219.4,384.1z M759.6,599.9
		c-2.2-1.9-4.3-4.5-5.2-4.2c-3.4,1.4-2.4,4.3-1.2,7.6C755.2,602.3,756.8,601.4,759.6,599.9z M1342.4,365.6c-3.7-1.5-7.4-3-11.1-4.4
		C1333.1,367.3,1338.1,365.7,1342.4,365.6z M1440.9,466.6c-0.3,0-0.6,0.1-1,0.1c0,5,0,10.1,0,15.1c0.3,0,0.6,0,1-0.1
		C1440.9,476.7,1440.9,471.6,1440.9,466.6z M1071.1,549.1c-0.5,0-1.1,0-1.6,0c0,4,0,8,0,12c0.5,0,1.1,0,1.6,0
		C1071.1,557.1,1071.1,553.1,1071.1,549.1z M1042.4,529.3c-0.2-0.7-0.3-1.4-0.5-2.1c-4.7,1.1-9.4,2.3-14.1,3.4
		c0.1,0.3,0.1,0.7,0.2,1C1032.8,530.9,1037.6,530.1,1042.4,529.3z M1469.6,461.6c8.4,2,10.6,1.1,10-3.4
		C1476.4,459.3,1473.1,460.4,1469.6,461.6z M1171,546.8c0,0.5,0.1,1.1,0.1,1.6c3,1.3,5.7,1.2,7.2-3.4
		C1175.9,545.6,1173.5,546.2,1171,546.8z M1093.1,403.1c0.5,0.5,0.9,1,1.4,1.5c2.2-1.9,4.4-3.8,6.6-5.7c-0.3-0.4-0.7-0.8-1-1.3
		C1097.7,399.4,1095.4,401.3,1093.1,403.1z M655.7,652.4c-0.5,0.4-1.1,0.8-1.6,1.2c1.9,2.4,3.8,4.8,5.7,7.2c0.4-0.3,0.7-0.5,1.1-0.8
		C659.1,657.5,657.4,654.9,655.7,652.4z M950,570.7c-0.1-0.5-0.1-1-0.2-1.5c-2.6,0.3-5.1,0.5-7.7,0.8c0.1,0.7,0.2,1.4,0.3,2.1
		C944.9,571.7,947.4,571.2,950,570.7z M1113.2,513.8c-0.1-0.4-0.1-0.8-0.2-1.1c-3.9,0.6-7.7,1.2-11.6,1.8c0.1,0.4,0.1,0.7,0.2,1.1
		C1105.4,514.9,1109.3,514.3,1113.2,513.8z"/>
	<path class="st0" d="M864.3,710.3c-3-2.7-6.2-5.3-9-8.3c-0.6-0.6-0.1-3.2,0.7-3.8c3-2.4,6.4-3.7,10.6-2.2c2.5,0.8,5.5,0.4,8.2,0
		c4.1-0.5,6.5,0.3,6.2,5.1c-0.1,1,0.5,2.1,0.8,3.1c0.5,2,1,4.1,1.5,6.1C877,710.3,870.7,710.3,864.3,710.3z"/>
	<path class="st0" d="M1507.3,486.3c-14.2-0.9-28.5-1.7-42.7-2.7c-5.8-0.4-11.5-0.9-17.2-2.5c20,0.7,39.9,1.4,59.9,2.1
		C1507.3,484.3,1507.3,485.3,1507.3,486.3z"/>
	<path class="st0" d="M628.3,613.3c3,4.7,5.9,9.3,9.4,14.7c-3.7,0.5-6.6,0.9-9.4,1.3C628.3,624,628.3,618.7,628.3,613.3z"/>
	<path class="st0" d="M1507.3,457.3c-1.8,0-3.8,0.5-5.3-0.2c-1.2-0.6-2.4-2.5-2.4-3.9c0-1,1.6-2.5,2.9-2.9c1.5-0.5,3.2,0,4.9,0.1
		C1507.3,452.7,1507.3,455,1507.3,457.3z"/>
	<path class="st0" d="M628.3,552.3c2.3-0.3,4.5-0.7,6.8-0.7c1.1,0,2.5,0.4,3.3,1.1c0.5,0.4,0.6,2.4,0.2,2.6c-1,0.6-2.3,0.9-3.5,0.8
		c-2.3-0.1-4.6-0.5-6.8-0.8C628.3,554.3,628.3,553.3,628.3,552.3z"/>
	<path class="st0" d="M628.3,632.3c1.8,0,3.5,0,4.1,0c1.3,4.6,2.5,8.7,3.8,13.2c-2.8-3.6-5.4-6.9-8-10.2
		C628.3,634.3,628.3,633.3,628.3,632.3z"/>
	<path class="st0" d="M660.3,710.3c-2.1-3.7-4.2-7.3-6.2-11c4.6,2.3,6.5,6.3,7.2,11C661,710.3,660.7,710.3,660.3,710.3z"/>
	<path class="st0" d="M1069.3,385.7c1.3,3.5,2.2,6,3.2,8.7c-3.6,3.3-5.8,3.2-9.1-0.5c-1-1.1-2.7-2.3-3.9-2.1
		c-6.7,0.8-13.3,1.8-19.9,3c-2.4,0.5-4.9,1.5-7.1,2.7c-3.3,1.9-6.3,5.1-10,0.9c-1.8,1.7-3.2,3-5.1,4.8c-0.8-5.1-4.5-4.3-7.5-4.5
		c-5.6-0.5-11.2-0.8-16.8-1.1c-3-0.2-5.9-0.6-7.8,2.8c-0.5,1-2.7,1.7-3.9,1.5c-5.1-0.7-11.5,3-15-4c-0.3-0.5-1.8-0.6-2.8-0.6
		c-8-0.1-16-0.1-23.9-0.2c-0.8,0-1.7,0.1-2.5,0c-2.8-0.3-6.5,0.7-6.9-3.8c-0.2-2.4,4.5-4.9,7.9-4.8c8.2,0.3,16.5,0.3,24.7,0.6
		c2,0.1,4.3,0.5,6,1.4c4.8,2.5,9.4,4.2,14.9,1.9c1.7-0.7,4.3-0.2,6.3,0.3c5.4,1.5,10.1,1,14.4-2.8c0.9-0.8,3.1-1.6,3.7-1.1
		c3.4,2.8,6.1,0.6,9.2-0.4c3.3-1.1,6.9-1.5,10.4-1.9c2.7-0.3,5.5-0.3,8.2-0.4c6.9-0.2,13.7-0.4,20.6-0.5
		C1061.3,385.6,1065.7,385.7,1069.3,385.7z"/>
	<path class="st0" d="M723.2,525.3c-5.1,2.1-10.1,4.1-15.7,6.4c-1.9-6.7-0.7-12.5,3.1-17.2c4.4-5.4,9.3-10.3,11.8-17.1
		c0.5-1.3,2.6-2.5,4.2-2.9c4.1-0.9,8.2-1.4,12.4-1.7c13.9-1.2,27.9-2,41.7-3.4c25.5-2.6,50.9-5.6,76.4-8.5
		c16.9-1.9,33.7-4.1,50.6-6.2c0.5-0.1,1-0.2,1.5-0.2c33.3-3.4,66.5-6.7,99.8-10.4c36.1-4,72.1-8.4,108.1-12.8
		c6.5-0.8,12.8-2.5,19.3-3.4c1.7-0.2,3.7,1,5.7,2.3c-7,0.8-13.9,1.7-20.9,2.5c-41.5,4.7-83,9.3-124.5,14.2
		c-23.6,2.8-47.2,6.3-70.8,8.9c-23.8,2.7-47.7,4.3-71.6,7c-28.5,3.2-56.9,7-85.3,10.5c-11.7,1.5-23.5,2.9-35.2,4.6
		c-8.2,1.2-10.7,4.4-9.5,11.2l0.1-0.2c-1.2,4.2-2.6,8.3-3.4,12.6c-0.2,1,1.6,2.3,2.4,3.5L723.2,525.3z"/>
	<path class="st0" d="M1019.4,514c3.5-1.4,6.8-3.3,10.4-4.2c2.9-0.7,3.8-2,3.8-4.8c0-4,1.1-8.2-3.2-11.2c-1-0.7-1-3-1-4.6
		c-0.2-4.5,0-9-0.3-13.5c-0.1-1.8-0.8-3.6-1.3-5.4c-0.7,0-1.3,0-2,0.1c-0.3,6.1-0.6,12.1-0.9,18.1c-8.1,0.4-8.3,0.3-7.8-7.5
		c0.2-3.5,0.5-6.9,1.2-10.3c0.2-1.1,1.7-2.6,2.7-2.7c4.3-0.6,8.6-1.3,12.9-1c2.4,0.1,4.6,2.1,7,4.1c-6-0.3-6,3.3-5.8,6.9
		c0.4,5.6,1.1,11.1,1.4,16.7c0.2,4.6,0,9.3,0,14c0,3.1-0.8,4.9-4.5,5c-4.1,0.2-8.1,1.2-12.2,1.9
		C1019.7,515.1,1019.5,514.5,1019.4,514z"/>
	<path class="st0" d="M1206.5,430.7c0.3,1.9,0.6,3.7,0.8,5.1c2.8-1.3,5.6-2.2,7.9-3.9c1.4-1,1.9-3.2,3.1-5.5
		c2.6,9.1,10.8,2.7,15.6,7.1c-2.8,0.2-5.5,0.5-8.3,0.7c-4.8,0.2-9.6-0.6-14,3.1c-2.1,1.8-6,1.4-9.2,1.8c-4.1,0.5-8.2,1-12.3,1.3
		c-1.8,0.1-3.6-0.4-5.4-0.5c-1.5-0.1-3.1,0-4.7,0c-1.6,0-3.2-0.1-4.8,0.1c-1.4,0.2-2.8,0.6-4.2,1c-0.3,0.1-0.4,0.7-0.6,0.7
		c-4.4,0-8.7,0-13.1,0c-0.2-0.5-0.4-1-0.6-1.5c1.8-0.9,3.5-2.2,5.4-2.6c3.9-0.7,7.9-0.7,11.8-1.4c2-0.4,3.6-2.2,5.5-2.9
		c1.6-0.6,3.4-0.6,5.1-0.5c4.6,0.3,9.6-1,13.1,3.8c0.4,0.6,4-0.5,5.7-1.5c1.1-0.8,1.4-2.9,2.1-4.4
		C1205.9,430.7,1206.2,430.7,1206.5,430.7z"/>
	<path class="st0" d="M931.7,432.9c4.9,0,9.7,0,15.5,0c-5.1,2.2-12.3,1.5-10.9,10c-1-7.8-1-7.9-8.5-7.6c-5.3,0.2-10.6,0.5-15.9,0.7
		c-0.8,0-1.9,0.3-2.5-0.1c-8.1-5.2-17.5-3.9-26.4-5.5c-0.5-0.1-0.9-0.4-1.3-1c19.5-2,39-3.4,58.5,1.1c-2.9,0.2-5.7,0.4-8.6,0.6
		C931.7,431.7,931.7,432.3,931.7,432.9z"/>
	<path class="st0" d="M1248.6,434.1c10.7,0,21.6,0,30.4,0c-42.2,5.1-86.5,10.5-130.8,15.9c-0.1-0.5-0.2-0.9-0.2-1.4
		c4.2-0.8,8.3-1.7,12.5-2.3c20.9-2.8,41.8-5.6,62.8-8.3c4.8-0.6,9.6-0.8,14.4-1c3.2-0.2,5.9-0.6,6.4-4.7c0.1-1,1.9-2.1,3.1-2.6
		c0.6-0.3,2.4,0.7,2.4,1.2C1249.5,432.1,1248.9,433.3,1248.6,434.1z"/>
	<path class="st0" d="M1157.7,454.8c4.3,1.2,8.6,2.4,12.9,3.6c2.7,0.8,5.5,2.4,4.3,5.5c-0.6,1.7-3.4,3.5-5.4,3.8
		c-5.3,0.7-10.8,0.6-15.2-3c-1.5-1.2-3.4-3.5-3.1-4.9c0.6-2.5,2.2-5.9,4.2-6.6c5-1.6,10.4-2.1,15.6-2.7c1.2-0.1,2.7,0.9,3.7,1.8
		c0.4,0.4,0.2,2.6-0.1,2.7c-1.3,0.3-2.8,0.4-4.1,0.2c-4.1-0.7-8.3-1.6-12.4-2.4C1157.9,453.5,1157.8,454.2,1157.7,454.8z
		 M1160.9,464.2c0.5-1.7,1.3-2.9,1.1-3.8c-0.2-0.8-1.5-1.7-2.3-1.8c-0.8,0-1.6,1-2.4,1.6C1157.9,461,1158.6,461.7,1160.9,464.2z"/>
	<path class="st0" d="M1009.5,544.2c-0.5,2.6-1,5.2-1.6,7.8c0,0.1-1.7,0.1-1.7,0c-0.2-1.7-0.3-3.4-0.4-5.6c-0.9-0.4-2.2-1-3.8-1.7
		c2.1-2,4-3.9,5.9-5.8c-0.3-0.3-0.6-0.7-0.9-1c-0.9,0.7-1.8,1.4-2.7,2.1c-0.5-0.2-0.9-0.5-1.4-0.7c2.6-6.6,5.2-13.2,8-20.1
		c0,8.6,0,16.9,0,25.2C1010.1,544.3,1009.4,544.1,1009.5,544.2z"/>
	<path class="st0" d="M921.7,535.1c0-5.5-0.1-10.1,0-14.7c0.2-8.8,0.3-17.6,0.7-26.4c0.1-1.2,1.6-2.3,2.4-3.5
		c0.3,1.3,0.9,2.5,0.9,3.8c0.1,10.2,0.1,20.5,0.1,30.8C925.7,528.6,926.9,532.5,921.7,535.1z"/>
	<path class="st0" d="M891.4,448.3c-0.2,1.8-0.4,4.6-0.8,7.4c-0.1,0.7-1.1,1.6-1.9,1.8c-0.5,0.2-1.7-0.6-1.9-1.1
		c-1.1-3-2.4-6.1-2.8-9.2c-0.2-2.1,0.5-5.5,1.9-6.3c1.6-0.9,4.4,0.5,6.7,1c0.4,0.1,0.8,0.6,1.1,0.9c1.1,1.1,2.2,2.1,3.3,3.2
		C895.3,446.7,893.7,447.4,891.4,448.3z"/>
	<path class="st0" d="M795.8,558c-1.5,0.5-2.7,1.1-3.9,1.3c-12.2,2.2-24.4,4.4-36.7,6.5c-0.4-0.5-0.8-0.9-1.3-1.4
		c0.9-1.2,1.6-3.4,2.6-3.5c12.7-1.4,25.3-2.4,38-3.5C794.8,557.4,795.1,557.7,795.8,558z"/>
	<path class="st0" d="M1304.3,425.2c-0.8,1-1.4,2.6-2.3,2.7c-7.9,0.9-15.8,1.8-23.7,2.2c-4.5,0.3-5.2-1.9-2.3-7.9
		c1,1.2,1.8,2.2,2.7,3.2c2.4-0.5,4.7-1.2,7-1.4c1.1-0.1,2.6,0.2,3.5,0.8c5,3.1,9.3,3,13.9-0.5
		C1303.5,424.7,1303.9,424.9,1304.3,425.2z"/>
	<path class="st0" d="M828.9,548.3c9.7-1.7,19.5-3.4,30.2-5.2c-3.2,5.2-25,9.3-30,6.7C829,549.3,829,548.8,828.9,548.3z"/>
	<path class="st0" d="M1156.2,422c5.9-0.7,11.9-1.4,19.2-2.3c-2-2.5-2.8-3.6-3.5-4.6c0.3-0.4,0.6-0.9,0.8-1.3c1.8,1,3.8,1.8,5.2,3.2
		c0.4,0.4-0.9,2.9-1.9,4C1171.2,426.5,1162.2,426.8,1156.2,422z"/>
	<path class="st0" d="M1275.8,450.5c-5.5,1-5.5-2.5-5.1-5.1c0.4-2.7,2.2-5.1,3.3-7.6c1,0.9,2.9,1.9,2.9,2.8
		C1276.9,443.9,1276.2,447.1,1275.8,450.5z"/>
	<path class="st0" d="M1019.8,538.9c2.2,3.2,4.2,4.9,4.6,7c0.7,3.5-2.3,3.7-4.8,3.9c-3.3,0.3-4.7-2-4.4-4.5
		C1015.4,543.5,1017.4,542,1019.8,538.9z"/>
	<path class="st0" d="M1307.5,428.6c5.1-0.3,10.3-0.4,15.4-1c4.9-0.5,9.7-1.5,14.5-2.3c0.1,0.6,0.2,1.2,0.2,1.8
		c-14.2,1.8-28.4,3.5-42.6,5.3c0-0.1,0-0.2,0-0.4c4.2-1.2,8.5-2.3,12.7-3.5C1307.6,428.6,1307.5,428.6,1307.5,428.6z"/>
	<path class="st0" d="M1004.4,525.7c-0.4,2.6-0.5,4.9-1.1,7.1c-0.6,2.2-1.7,4.2-2.8,6.2c-0.5,0.9-1.6,1.4-2.4,2
		c-0.4-0.9-1.1-1.8-1.2-2.8C996.3,532.8,998.7,528.8,1004.4,525.7z"/>
	<path class="st0" d="M992.8,530.1c-0.2-0.4-0.6-0.9-0.5-1.3c0.9-5-1.4-5.6-5.7-4.7c-1.3,0.3-3.1-0.9-4.5-1.7
		c-0.3-0.2,0.2-2.5,0.3-2.5c1.6,0,3.2,0.2,4.8,0.4c2.1,0.1,4.2,0.2,6.7,0.3c0,2.3,0,5.9,0,9.5C993.5,530.1,993.1,530.1,992.8,530.1z
		"/>
	<path class="st0" d="M1077.6,502c-2.9,3.4-11.9,6.1-14.3,4.9c-0.6-0.3-1.5-1.4-1.3-1.8c0.3-0.8,1.1-1.9,1.8-2
		C1068.1,502.6,1072.4,502.4,1077.6,502z"/>
	<path class="st0" d="M878.9,468c2.7-1.2,5.2-2.6,8-3.3c1.2-0.3,2.8,0.7,4.2,1.1c-0.7,1.5-1.4,4.4-2.1,4.4
		c-3.4,0.1-6.9-0.5-10.4-0.9C878.7,468.9,878.8,468.5,878.9,468z"/>
	<path class="st0" d="M1029.1,456.1c-4.4-0.9-7.7-1.4-10.8-2.5c-0.5-0.2-0.7-3.3,0-4.4c0.8-1.2,2.8-1.5,3.8-0.6
		C1024,450.7,1026,452.8,1029.1,456.1z"/>
	<path class="st0" d="M1009.2,513.7c-0.2,5.3-2.8,8-6.8,7.2c-1.2-0.2-2.3-2-2.9-3.3c-0.2-0.3,1.3-2,2.2-2.3
		C1003.9,514.6,1006.4,514.3,1009.2,513.7z"/>
	<path class="st0" d="M903.7,443.1c-0.6,1.1-1.2,2.2-1.8,3.3c-0.6-0.1-1.2-0.2-1.2-0.3c0.2-2.3,0.5-4.6,1-6.8c0-0.2,2.9-0.3,3.4,0.4
		c1.2,1.5,1.7,3.5,2.6,5.4c-0.5,0.3-1,0.6-1.5,0.8C905.5,445.1,904.7,444.2,903.7,443.1z"/>
	<path class="st0" d="M1046.6,448.4c0.9,6.1,4.8,3.5,7.8,3.6c3.1,0.1,6.1,0.5,9.3,1.5c-4.6,0.5-9.2,1.3-13.9,1.5
		C1045.5,455.3,1044.4,452.9,1046.6,448.4z"/>
	<path class="st0" d="M724.3,509.4c0.9-2.1,1.9-4.1,3.4-7.4c-0.4,7.5-0.7,13.8-1.3,20c-0.1,1.2-2,2.2-3.1,3.3c0,0,0.1,0.1,0.1,0.1
		c0.3-5.4,0.7-10.8,1-16.1C724.4,509.2,724.3,509.4,724.3,509.4z"/>
	<path class="st0" d="M914.1,440.5c2.2,0.5,4.2,0.8,5.9,1.5c1,0.4,2.1,1.8,2.1,2.7c0,0.8-1.6,2-2.5,2.1
		C914.7,447.4,913.2,445.6,914.1,440.5z"/>
	<path class="st0" d="M1070.1,401.7c-4.5,0.9-9.1,1.8-13.6,2.8c-0.1-0.6-0.3-1.2-0.4-1.9c4.1-2.7,9-2.2,13.5-3
		C1069.8,400.3,1069.9,401,1070.1,401.7z"/>
	<path class="st0" d="M1307.6,428.6c-1.7-3.7-0.5-5.3,3.5-5.1c2.4,0.1,4.7,0.2,7.1,0.4c0,0.4,0.1,0.9,0.1,1.3
		C1314.7,426.3,1311.2,427.5,1307.6,428.6C1307.5,428.6,1307.6,428.6,1307.6,428.6z"/>
	<path class="st0" d="M1364.6,421.2c-3.5,0.4-7.1,1-10.6,1.1c-1.3,0.1-2.6-0.7-3.8-1.4c-0.3-0.1-0.1-2,0.3-2.1
		c1.3-0.5,2.9-1.1,4.2-0.8C1358,418.8,1361.2,420.1,1364.6,421.2z"/>
	<path class="st0" d="M824.6,550.6c-5.3,0.7-10.6,1.4-15.9,2c-0.1-0.4-0.1-0.8-0.2-1.2c5.3-0.8,10.5-1.7,15.8-2.5
		C824.4,549.5,824.5,550.1,824.6,550.6z"/>
	<path class="st0" d="M1313.1,452c0-5.3,0-10.5,0-15.8c0.3,0,0.6,0,0.9,0c0,5.3,0,10.6,0,15.9C1313.7,452.1,1313.4,452,1313.1,452z"
		/>
	<path class="st0" d="M992,541.2c4.2,0.5,0.7,5,2.6,6.7c-0.4,0.2-0.9,0.5-1.3,0.7c-1-2-2-4.1-3.1-6.1
		C990.8,542.1,991.4,541.7,992,541.2z"/>
	<path class="st0" d="M1086,385.5c1,1.7,1.7,2.7,2.1,3.8c0.1,0.3-1.4,1.5-1.5,1.4c-1-0.7-1.9-1.6-2.5-2.6
		C1083.9,387.8,1085,386.8,1086,385.5z"/>
	<path class="st0" d="M750.6,486.7c1.1-2.4,1.9-4.1,2.8-6.1C755.4,484.8,755,485.9,750.6,486.7z"/>
	<path class="st0" d="M1042.5,455.4c-3.2,0.3-6.4,0.6-9.7,0.9c-0.1-0.5-0.1-1.1-0.2-1.6c3.2-0.4,6.4-0.7,9.6-1.1
		C1042.4,454.2,1042.4,454.8,1042.5,455.4z"/>
	<path class="st0" d="M772.1,589.2c-0.3,0-0.7,0.1-1,0.1c-4.6,0.6-10.1-0.4-10.4,7.6c-3.3-3.7-3.6-6,0.3-7.3
		c5.8-2,11.9-3.4,17.5-5.9c10.5-4.7,22-4.3,32.8-7.2c14.6-3.8,29.4-6.5,44.2-9.6c10.8-2.3,21.6-4.7,32.5-6.8
		c8.3-1.6,16.6-2.8,24.9-4.1c1.1-0.2,2.5-0.4,3.4,0c2.6,1.2,6.7,0.6,6.2,5.5c-0.5,4.5,2,9.9-5,11.8c-16.4,4.2-32.8,8.9-49.2,13
		c-24.1,6-48.1,12-72.3,17.5c-8.4,1.9-17.1,2.5-25.7,3.7c-3.4,0.5-5.1-0.9-4.9-4.4c0-0.8,0.1-1.7,0-2.5
		C764.5,595,766.3,590.9,772.1,589.2c13.8,0.9,26.6-4.2,39.7-7.3c-7.8,1-15.6,2.6-23.3,4.2C783.1,587.1,777.6,588.1,772.1,589.2z
		 M900.7,562.5c-0.1-0.7-0.2-1.4-0.3-2c-4.4,0.7-8.9,1.4-13.3,2.1c0.1,0.8,0.3,1.7,0.4,2.5C891.9,564.2,896.3,563.3,900.7,562.5z
		 M882.6,566c-0.2-0.7-0.4-1.4-0.5-2c-3.7,1.1-7.5,2.3-11.2,3.4c0.1,0.5,0.2,0.9,0.3,1.4C875,567.8,878.8,566.9,882.6,566z"/>
	<path class="st0" d="M796.7,652.6c8.9-2.1,17.3-3.9,25.5-6c5.2-1.3,10.4-2.9,15.6-4.3c4-1.1,8.1-2,11.9-3.5
		c2.8-1.1,5.7-2.7,7.8-4.8c5.7-5.4,8.5-5.5,13.8,0.2c0.9,1,2.3,1.6,4.4,3.1c0-2.4-0.3-3.7,0.1-4.7c0.6-1.4,2-3.8,2.6-3.7
		c1.6,0.3,4,1.5,4.4,2.9c1.8,5.6-6.4,14.8-12.4,14.4c-0.9-0.1-1.9,0.6-2.7,1.2c-0.5,0.3-0.8,1.3-1.3,1.4
		c-10.2,1.1-17.7,8.4-26.7,12.1c-2.9,1.2-6.2,1.3-9.1,2.4c-3.8,1.4-7.4,3.2-11.1,4.8c-1,0.4-2.2,1-3.2,0.9
		C813.3,668.5,799,657.1,796.7,652.6z"/>
	<path class="st0" d="M1078.2,520c2.7,0.1,5.4-4.5,7.8-0.7c3.8-1.4,7.3-2.8,11.3-4.2c0.2,1.7,0.2,2.5,0.3,3.8
		c8.6-1.8,17-3.6,25.4-5.4c6.2-1.3,12.4-2.5,18.5-4.1c1.6-0.4,2.8-2.5,4.4-2.8c2-0.3,4.9-0.2,6,1c2.5,2.8,0.5,9.6-3.2,10.8
		c-5.5,1.8-11.2,3.2-16.8,4.5c-15.5,3.5-31.1,6.9-46.7,10.4c-4.6,1-6-0.8-6-5.2C1079.4,525.7,1078.7,523.2,1078.2,520z"/>
	<path class="st0" d="M1159.6,502.5c12.2,1.4,23-3.8,34.4-5.9c-1.2-0.1-2.5-0.1-3.8-0.2c0.1-0.3,0.2-0.8,0.3-0.8
		c7.5-0.5,15.1,0.4,22.3-2.5c0.5-0.2,2.3,1.2,2.2,1.8c-0.2,2.5-0.6,5-1.3,7.5c-0.2,0.7-1.6,1.2-2.5,1.4
		c-14.7,3.5-29.3,7.3-44.1,10.3c-8,1.6-9.3-0.2-8.3-8.4C1159,504.5,1159.4,503.3,1159.6,502.5z"/>
	<path class="st0" d="M968.7,598.1c7.8,2.2,13.7,0.5,19.9-2.2c4.9-2.2,10.4-3.2,15.7-4.2c1.8-0.3,4.8,0.4,5.5,1.6
		c1.1,1.8,1.7,5.1,0.7,6.8c-2.6,4.9-6.2,8.9-12.7,8.7c-7-0.3-14.1,2.5-21.1-0.6c-2.4-1.1-5.9-1.2-4.3-5.6
		C972.8,601.8,970.7,600.3,968.7,598.1z"/>
	<path class="st0" d="M1219.7,488.8c4.6,0,9.5,0,15.4,0c-1.1-0.9-1.7-1.3-2.9-2.2c2.3-0.4,4.8-1.7,5.9-0.9
		c5.7,3.7,10.5-0.7,15.6-1.2c3.4-0.3,6.7-1.2,10-1.8c1.4,6.1,0.5,8.2-4.6,9.4c-9,2.2-18.1,4.1-27.2,5.9c-3.7,0.7-6.9,0.5-7.8-4.5
		C1223.7,492,1221.5,490.7,1219.7,488.8z"/>
	<path class="st0" d="M1274.7,487.7c-1.2-1-2.5-2-3.7-3c1.1-1.3,1.9-3.1,3.3-3.7c3.8-1.5,7.9-2.4,11.9-3.7c3.8-1.2,7.4-3.2,11.3-3.8
		c2.1-0.3,5.5,0.8,6.6,2.4c1.8,2.7,0,4.8-3.3,5.6C1292.3,483.5,1283.9,485.5,1274.7,487.7z"/>
	<path class="st0" d="M780.2,639.4c3-1.9,4.9-3.8,7.2-4.4c16.6-4.9,33.2-9.6,49.8-14.3c1.1-0.3,2.2-0.8,3.4-0.8c0.7,0,1.9,0.5,2,1
		c0.1,0.8-0.2,2-0.7,2.5c-0.8,0.8-2,1.3-3.1,1.6c-18.5,5.2-37.1,10.3-55.6,15.5C782.8,640.4,782.4,640.2,780.2,639.4z"/>
	<path class="st0" d="M1079.9,575.5c1.4-0.8,2.8-1.4,4-2.3c1.9-1.4,3.5-3.4,5.6-4.5c4.4-2.4,9-4.5,13.6-6.5c0.5-0.2,2.1,1,2.6,1.9
		c2.9,5.1-0.9,11.5-6.7,11.9c-6.2,0.4-12.4,1-18.6,1.5C1080.2,576.8,1080.1,576.1,1079.9,575.5z"/>
	<path class="st0" d="M1340.2,463.6c9.1-1.3,16.6-2.4,24.2-3.3c0.8-0.1,2.4,1.1,2.4,1.7c0,1.3-0.6,3.6-1.4,3.8
		c-6.5,1.7-13.1,3.4-19.8,4.1C1344.3,470.1,1342.6,466.5,1340.2,463.6z"/>
	<path class="st0" d="M1373.4,465c-0.9-0.5-2.5-1-2.6-1.7c-0.3-1.7-0.5-4.1,0.4-5.1c1.8-1.8,4.3-3.5,6.6-3.8
		c3.5-0.5,7.3,0.1,10.9,0.5c0.9,0.1,2.3,1.3,2.3,1.9c-0.1,1.3-0.7,3.4-1.5,3.7C1384.3,462.2,1379,463.4,1373.4,465z"/>
	<path class="st0" d="M1339.8,468.4c-1.1,1.5-1.9,3.9-3.2,4.2c-7.2,2-14.5,3.6-21.8,5.1c-1.2,0.2-2.8-1-4.2-1.6c1.1-1,2-2.5,3.3-2.8
		c8.1-2.1,16.4-3.8,24.5-5.7C1338.9,467.9,1339.3,468.2,1339.8,468.4z"/>
	<path class="st0" d="M900.5,486.9c1.5,14.1,0.8,28.2,0.3,43.1C897.6,526,897.3,492.4,900.5,486.9z"/>
	<path class="st0" d="M936.5,560.8c-1.2-3.5-0.7-6,3.6-6.8c5-1,9.9-2.4,15.2-3.7C952.7,557.5,945.4,561.4,936.5,560.8z"/>
	<path class="st0" d="M1119.5,461.2c0,10.2,0,20.3,0,30.5c-0.5,0-1,0-1.5,0c0-10.2,0-20.3,0-30.5
		C1118.5,461.2,1119,461.2,1119.5,461.2z"/>
	<path class="st0" d="M669.7,679.8c0.8,0,3.4-0.7,4,0.1c5.8,7.2,11.3,14.6,16.7,22c0.7,0.9,0.7,2.4,0,4.1c-5-6.9-9.9-13.9-15-20.7
		C673.9,683.3,671.7,681.7,669.7,679.8z"/>
	<path class="st0" d="M1089.1,562.9c-0.2,4.2-7.3,7.8-10.2,5.8c-0.5-0.4-0.7-2.5-0.2-3c1.8-1.9,3.9-3.5,6-5c0.8-0.5,2.4-0.8,3-0.4
		C1088.6,561,1088.9,562.5,1089.1,562.9z"/>
	<path class="st0" d="M1126.8,457.6c0,10.5,0,21,0,31.4c-0.4,0-0.8,0-1.1,0c0-10.5,0-21,0-31.5
		C1126.1,457.6,1126.4,457.6,1126.8,457.6z"/>
	<path class="st0" d="M943.9,575c2.9-0.8,5.7-1.8,8.7-2.3c0.9-0.1,2.1,1.3,3.2,2c-0.8,1.1-1.6,3-2.4,3.1c-3,0.2-6.1-0.4-9.1-0.6
		C944.1,576.4,944,575.7,943.9,575z"/>
	<path class="st0" d="M981.3,667.7c1.9,2.7,3.9,4.4,3.7,5.6c-0.3,1.4-2.6,2.3-4,3.5c-1-1.3-2.7-2.5-2.9-3.9
		C978,671.6,979.7,670.3,981.3,667.7z"/>
	<path class="st0" d="M957.5,606.6c15.5,1.4,3.1-7.8,6.3-12.2c2,4.4,3.7,8.2,5.9,13.2c-4,0.3-7.4,0.5-10.8,0.8
		C958.4,607.8,957.9,607.2,957.5,606.6z"/>
	<path class="st0" d="M1187.7,477c0-8.1,0-16.1,0-24.2c0.3,0,0.6,0,1,0c0,8.1,0,16.1,0,24.2C1188.3,477,1188,477,1187.7,477z"/>
	<path class="st0" d="M1308.4,374.7c4.3-0.9,7.8-1.7,11.8-2.6C1318.4,378,1313.3,379.3,1308.4,374.7z"/>
	<path class="st0" d="M1437.3,451.9c-0.4,2.5-0.6,5.1-1.3,7.5c-0.3,0.9-1.8,1.5-2.7,2.3c-0.6-1.2-2.1-2.7-1.8-3.5
		c1.1-2.5,2.8-4.7,4.3-7C1436.4,451.4,1436.9,451.6,1437.3,451.9z"/>
	<path class="st0" d="M1242.9,467.1c0-6.4,0-12.9,0-19.3c0.3,0,0.5,0,0.8,0c0,6.4,0,12.8,0,19.2
		C1243.4,467,1243.2,467.1,1242.9,467.1z"/>
	<path class="st0" d="M1219.4,384.1c1.6-1.3,3.1-2.9,4.9-3.8c0.8-0.4,2.3,0.3,3.5,0.5c-0.5,1-0.8,2.6-1.7,3c-1.8,0.9-4,1.1-6,1.6
		C1219.8,384.9,1219.6,384.5,1219.4,384.1z"/>
	<path class="st0" d="M759.6,599.9c-2.8,1.5-4.4,2.4-6.4,3.5c-1.2-3.3-2.2-6.3,1.2-7.6C755.3,595.3,757.4,598,759.6,599.9z"/>
	<path class="st0" d="M1342.4,365.6c-4.3,0.1-9.3,1.7-11.1-4.4C1335,362.6,1338.7,364.1,1342.4,365.6z"/>
	<path class="st0" d="M1440.9,466.6c0,5,0,10.1,0,15.1c-0.3,0-0.6,0-1,0.1c0-5,0-10.1,0-15.1
		C1440.3,466.6,1440.6,466.6,1440.9,466.6z"/>
	<path class="st0" d="M1071.1,549.1c0,4,0,8,0,12c-0.5,0-1.1,0-1.6,0c0-4,0-8,0-12C1070,549.1,1070.5,549.1,1071.1,549.1z"/>
	<path class="st0" d="M1042.4,529.3c-4.8,0.8-9.6,1.6-14.4,2.4c-0.1-0.3-0.1-0.7-0.2-1c4.7-1.1,9.4-2.3,14.1-3.4
		C1042.1,527.9,1042.2,528.6,1042.4,529.3z"/>
	<path class="st0" d="M1469.6,461.6c3.5-1.2,6.8-2.3,10-3.4C1480.2,462.8,1478,463.6,1469.6,461.6z"/>
	<path class="st0" d="M1171,546.8c2.5-0.6,4.9-1.2,7.4-1.8c-1.6,4.6-4.2,4.7-7.2,3.4C1171.1,547.9,1171.1,547.3,1171,546.8z"/>
	<path class="st0" d="M1093.1,403.1c2.3-1.8,4.6-3.7,6.9-5.5c0.3,0.4,0.7,0.8,1,1.3c-2.2,1.9-4.4,3.8-6.6,5.7
		C1094,404.1,1093.5,403.6,1093.1,403.1z"/>
	<path class="st0" d="M655.7,652.4c1.7,2.5,3.5,5.1,5.2,7.6c-0.4,0.3-0.7,0.5-1.1,0.8c-1.9-2.4-3.8-4.8-5.7-7.2
		C654.6,653.2,655.1,652.8,655.7,652.4z"/>
	<path class="st0" d="M950,570.7c-2.5,0.5-5,0.9-7.6,1.4c-0.1-0.7-0.2-1.4-0.3-2.1c2.6-0.3,5.1-0.5,7.7-0.8
		C949.8,569.7,949.9,570.2,950,570.7z"/>
	<path class="st0" d="M1113.2,513.8c-3.9,0.6-7.7,1.2-11.6,1.7c-0.1-0.4-0.1-0.7-0.2-1.1c3.9-0.6,7.7-1.2,11.6-1.8
		C1113.1,513,1113.1,513.4,1113.2,513.8z"/>
	<path class="st0" d="M1185.7,593.8c4.4-4.3,6.1-4.4,8.9,0C1191.4,593.8,1188.6,593.8,1185.7,593.8z"/>
	<path class="st0" d="M646.1,404.2c-3.6,1.1-7.2,2.1-11.7,3.4c2.4-5.8,7-7.4,11.3-5.1C645.9,403.1,646,403.7,646.1,404.2z"/>
	<path class="st0" d="M724.4,509.2c-0.3,5.4-0.7,10.8-1,16.1c-0.9-1.2-2.6-2.6-2.4-3.5C721.8,517.6,723.2,513.4,724.4,509.2z"/>
	<path class="st0" d="M1160.9,464.2c-2.3-2.5-3-3.2-3.7-4c0.8-0.6,1.6-1.6,2.4-1.6c0.9,0.1,2.2,1,2.3,1.8
		C1162.2,461.3,1161.4,462.5,1160.9,464.2z"/>
	<path class="st0" d="M772.1,589.2c5.5-1,11-2,16.4-3.1c7.7-1.6,15.4-3.2,23.3-4.2C798.7,585,785.9,590.1,772.1,589.2
		C772,589.1,772.1,589.2,772.1,589.2z"/>
	<path class="st0" d="M900.7,562.5c-4.4,0.9-8.8,1.7-13.2,2.6c-0.1-0.8-0.3-1.7-0.4-2.5c4.4-0.7,8.9-1.4,13.3-2.1
		C900.4,561.1,900.6,561.8,900.7,562.5z"/>
	<path class="st0" d="M882.6,566c-3.8,0.9-7.6,1.8-11.4,2.7c-0.1-0.5-0.2-0.9-0.3-1.4c3.7-1.1,7.5-2.3,11.2-3.4
		C882.2,564.6,882.4,565.3,882.6,566z"/>
</g>
</svg>
